<?xml version="1.0" encoding="UTF-8"?>
<svg version="1.1" xmlns="http://www.w3.org/2000/svg" width="208" height="208">
<path d="M0 0 C68.64 0 137.28 0 208 0 C208 68.64 208 137.28 208 208 C139.36 208 70.72 208 0 208 C0 139.36 0 70.72 0 0 Z " fill="#F9FDFE" transform="translate(0,0)"/>
<path d="M0 0 C0 48.51 0 97.02 0 147 C-45.87 147 -91.74 147 -139 147 C-137.02 144.69 -135.04 142.38 -133 140 C-129.44098266 135.29858203 -126.56971976 130.24618548 -123.78076172 125.06469727 C-117.30896546 113.15325646 -110.74571201 106.95711342 -98.69750977 100.67431641 C-86.55849638 94.32484003 -78.79928747 86.82275669 -72.625 74.625 C-64.63749586 59.00394317 -53.34383972 51.35854893 -37.73046875 43.8125 C-30.06351943 38.72313736 -25.60747255 32.23500409 -21.5625 24.125 C-8.91056232 0 -8.91056232 0 0 0 Z " fill="#F9FDFE" transform="translate(208,61)"/>
<path d="M0 0 C-0.7085106 4.00144157 -1.71548221 6.52822748 -4.0625 9.875 C-4.61035156 10.67679688 -5.15820312 11.47859375 -5.72265625 12.3046875 C-11.49745743 19.13935784 -18.02560366 23.36102477 -25.9375 27.375 C-39.07377377 34.42161043 -45.05766328 41.62452 -51.98657227 54.68408203 C-59.17180238 68.14741168 -68.1707209 74.53011589 -81.625 81.375 C-93.0380538 87.55258454 -98.05390276 95.49511093 -103.98486328 106.68310547 C-111.1756457 120.14535837 -120.16788121 126.52867119 -133.625 133.375 C-145.0285692 139.54745078 -149.99347199 147.44701853 -155.92114258 158.61499023 C-162.63984907 171.13935124 -170.63918596 177.53131461 -183 184 C-193.29312221 189.60670756 -200.15853818 195.75822712 -205.87109375 206.09375 C-206.24363281 206.7228125 -206.61617187 207.351875 -207 208 C-207.33 208 -207.66 208 -208 208 C-208.42296323 202.06014171 -208.72972652 196.12914157 -208.93383789 190.17773438 C-209.01892348 188.15892941 -209.13466212 186.14116034 -209.2824707 184.12597656 C-210.2437995 170.67402613 -210.2437995 170.67402613 -208 165 C-203.97282115 160.42023187 -198.48954463 158.16490499 -192.95146179 155.89320374 C-183.76021667 151.68627818 -179.11157211 141.03107187 -174.734375 132.546875 C-169.50051905 122.56765633 -162.88184196 116.28026995 -153 111 C-138.22046763 103.06099444 -130.20329573 95.22749368 -122.51171875 80.06640625 C-121.79435547 78.67228516 -121.79435547 78.67228516 -121.0625 77.25 C-120.66160156 76.43015625 -120.26070313 75.6103125 -119.84765625 74.765625 C-113.66242863 65.50739846 -105.14405292 60.95559691 -95.48828125 55.93359375 C-86.76761924 51.24494192 -80.11155247 45.87486587 -75.3125 37.0625 C-74.73886719 36.03511719 -74.16523438 35.00773437 -73.57421875 33.94921875 C-72.62367391 32.16842135 -71.6850453 30.38108902 -70.76953125 28.58203125 C-67.43005736 22.14243142 -63.52005782 16.74349055 -58 12 C-57.38318359 11.46810059 -56.76636719 10.93620117 -56.13085938 10.38818359 C-39.34674831 -3.21449686 -20.36490498 -1.26600987 0 0 Z " fill="#F9FDFE" transform="translate(208,0)"/>
<path d="M0 0 C34.65 0 69.3 0 105 0 C97.7912963 14.41740739 90.74672164 20.80603873 77 28 C66.0158161 33.98313181 59.16612429 40.65281127 53.5625 51.875 C46.33256851 65.53499808 38.56992966 72.89855786 25 80 C13.48477567 86.27239179 6.75793574 93.13516272 1 105 C0.67 105 0.34 105 0 105 C0 70.35 0 35.7 0 0 Z " fill="#F9FDFE" transform="translate(0,0)"/>
<path d="M0 0 C0.17883846 6.34925776 0.30063117 12.69785657 0.38452148 19.04907227 C0.41952479 21.20524362 0.4671447 23.36125124 0.52807617 25.5168457 C1.1239202 47.15249319 1.1239202 47.15249319 -5.12402344 55.03588867 C-5.7430957 55.68404541 -6.36216797 56.33220215 -7 57 C-7.63856934 57.70906494 -8.27713867 58.41812988 -8.93505859 59.14868164 C-14.47029762 64.99623215 -21.93266709 68.47132202 -28.99291992 72.14453125 C-33.28766268 74.39417793 -36.7009757 76.3702252 -40 80 C-40.66 80 -41.32 80 -42 80 C-42.40992188 80.84884766 -42.40992188 80.84884766 -42.828125 81.71484375 C-44.03653423 84.07124175 -45.366367 86.30479776 -46.75 88.5625 C-48.94389411 92.16599757 -50.94665581 95.81118561 -52.875 99.5625 C-60.38462075 113.26900574 -72.08626968 119.63809277 -85.66015625 126.578125 C-88.17210067 128.10458204 -89.93754135 129.92423516 -92 132 C-92.66 132 -93.32 132 -94 132 C-95.14888897 134.23308451 -96.16675124 136.42875114 -97.07836914 138.77270508 C-98.7184928 142.22440291 -100.13350052 144.44476584 -103 147 C-108.87648767 148.84931219 -115.3799736 148.02848078 -121.4375 147.6875 C-123.13981625 147.63227311 -124.84230412 147.58209159 -126.54492188 147.53710938 C-130.70087388 147.41635463 -134.84854606 147.2269161 -139 147 C-138.59950439 146.54036865 -138.19900879 146.0807373 -137.78637695 145.60717773 C-132.22881431 139.18527383 -127.80531081 132.5417383 -123.78076172 125.06469727 C-117.30896546 113.15325646 -110.74571201 106.95711342 -98.69750977 100.67431641 C-86.55849638 94.32484003 -78.79928747 86.82275669 -72.625 74.625 C-64.63749586 59.00394317 -53.34383972 51.35854893 -37.73046875 43.8125 C-30.06351943 38.72313736 -25.60747255 32.23500409 -21.5625 24.125 C-8.91056232 0 -8.91056232 0 0 0 Z " fill="#F7FDFE" transform="translate(208,61)"/>
<path d="M0 0 C0.33 0 0.66 0 1 0 C1.19879872 4.01955718 1.34338441 8.0371892 1.43945312 12.06054688 C1.47951753 13.426614 1.53399241 14.79234156 1.60351562 16.15722656 C2.16180616 27.40513876 2.16180616 27.40513876 -0.55493164 31.13452148 C-2.62918196 32.73999476 -4.62976255 33.88318858 -7 35 C-7.63341309 35.34385742 -8.26682617 35.68771484 -8.91943359 36.04199219 C-10.73776893 37.01507621 -12.58208701 37.91258083 -14.4375 38.8125 C-26.37172732 45.02395033 -31.78042334 52.98150231 -37.98535156 64.68334961 C-45.17447395 78.14595107 -54.16870989 84.52909278 -67.625 91.375 C-79.0380538 97.55258454 -84.05390276 105.49511093 -89.98486328 116.68310547 C-97.1756457 130.14535837 -106.16788121 136.52867119 -119.625 143.375 C-131.0380538 149.55258454 -136.05390276 157.49511093 -141.98486328 168.68310547 C-149.80141529 183.31689548 -160.3289752 189.84213547 -174.95703125 197.12890625 C-177.67097279 198.79768416 -178.74328093 199.8328648 -180.67578125 202.19140625 C-183.42767815 205.08200127 -185.44562488 205.44210699 -189.3984375 205.5859375 C-191.39147212 205.54634079 -193.38409133 205.47518766 -195.375 205.375 C-196.39722656 205.34792969 -197.41945312 205.32085937 -198.47265625 205.29296875 C-200.98396496 205.22255823 -203.49086959 205.12415134 -206 205 C-200.12761788 191.06006329 -191.1844546 184.80497814 -178.2644043 177.95849609 C-166.08690202 171.4661183 -160.32585624 163.98938992 -154 152 C-147.7075371 140.33948241 -140.67115559 133.63760214 -129 127.4375 C-115.67634573 120.35044986 -108.98793578 113.24422871 -102 100 C-95.7075371 88.33948241 -88.67115559 81.63760214 -77 75.4375 C-63.67634573 68.35044986 -56.98793578 61.24422871 -50 48 C-43.09216323 35.19913753 -35.02089309 28.74364503 -22.31933594 22.01806641 C-12.66277288 16.86078928 -6.36354397 11.6260922 -1.09375 1.90625 C-0.55234375 0.96265625 -0.55234375 0.96265625 0 0 Z " fill="#F8FDFE" transform="translate(207,3)"/>
<path d="M0 0 C1.50053008 0.04522501 3.00119209 0.08627553 4.50195312 0.12304688 C8.14991225 0.2214221 11.79284711 0.37623968 15.4375 0.5625 C13.3144691 2.87421723 11.32593262 4.29413668 8.5234375 5.69140625 C-6.26301176 13.29640571 -13.92089278 21.20824645 -21.32006836 36.16748047 C-27.03294555 47.34794359 -35.21373867 53.50057681 -46.1875 59.1875 C-56.70709248 64.67834672 -63.61924781 69.83094306 -69.125 80.4375 C-69.89216594 81.85154624 -70.66168676 83.26431749 -71.43359375 84.67578125 C-71.7982373 85.34689941 -72.16288086 86.01801758 -72.53857422 86.70947266 C-78.68225873 97.82787166 -85.81153675 104.6144044 -97 110.5625 C-110.10833418 117.56109669 -118.04556824 124.97409103 -124.375 138.5 C-131.08719064 152.22153555 -142.18587127 159.25118874 -155.5625 165.5625 C-157.09608431 149.6132232 -157.09608431 149.6132232 -153.546875 144.8671875 C-150.95897151 142.95337863 -148.29067932 141.26761208 -145.5625 139.5625 C-141.67199087 135.68083293 -139.24370799 131.01865635 -136.75878906 126.15844727 C-129.71802078 112.40236731 -120.55886268 103.27976622 -106.5 96.625 C-95.39120335 91.22033513 -89.65181598 83.63716629 -84.1796875 72.83203125 C-77.15791895 59.22975283 -67.35103066 51.04806851 -53.9375 44.0625 C-42.67523211 38.09389504 -37.63294301 31.20000501 -31.73046875 20.125 C-31.40240234 19.52502197 -31.07433594 18.92504395 -30.73632812 18.30688477 C-29.80281377 16.59675116 -28.89096202 14.87484426 -27.98046875 13.15234375 C-27.20277791 11.93714721 -26.39278875 10.74238401 -25.5625 9.5625 C-25.00651123 8.76481201 -24.45052246 7.96712402 -23.87768555 7.14526367 C-17.09711549 -1.09471402 -9.79491496 -0.51574947 0 0 Z " fill="#F9FDFE" transform="translate(155.5625,-0.5625)"/>
<path d="M0 0 C1.47919922 0.06960937 1.47919922 0.06960937 2.98828125 0.140625 C3.98214844 0.17671875 4.97601563 0.2128125 6 0.25 C7.13888672 0.31960937 7.13888672 0.31960937 8.30078125 0.390625 C7.73774064 4.39605312 6.55435436 6.9629786 4.23828125 10.265625 C3.69042969 11.06742188 3.14257812 11.86921875 2.578125 12.6953125 C-3.19667618 19.52998284 -9.72482241 23.75164977 -17.63671875 27.765625 C-30.77299252 34.81223543 -36.75688203 42.015145 -43.68579102 55.07470703 C-50.87102113 68.53803668 -59.86993965 74.92074089 -73.32421875 81.765625 C-84.73727255 87.94320954 -89.75312151 95.88573593 -95.68408203 107.07373047 C-102.87486445 120.53598337 -111.86709996 126.91929619 -125.32421875 133.765625 C-136.72778795 139.93807578 -141.69269074 147.83764353 -147.62036133 159.00561523 C-154.33906782 171.52997624 -162.33840471 177.92193961 -174.69921875 184.390625 C-184.99234096 189.99733256 -191.85775693 196.14885212 -197.5703125 206.484375 C-197.94285156 207.1134375 -198.31539062 207.7425 -198.69921875 208.390625 C-199.02921875 208.390625 -199.35921875 208.390625 -199.69921875 208.390625 C-199.90443774 205.20409278 -200.02744808 202.01927448 -200.13671875 198.828125 C-200.19537109 197.93287109 -200.25402344 197.03761719 -200.31445312 196.11523438 C-200.4394793 191.23921339 -200.15093355 188.18914707 -196.73046875 184.5546875 C-192.7703922 181.15768825 -188.38835268 178.69805479 -183.76171875 176.328125 C-170.37147935 169.36610909 -161.92439934 161.77728035 -154.76171875 148.453125 C-148.79796559 137.40797645 -142.86826213 130.358699 -131.69921875 124.390625 C-117.14802186 116.57427262 -109.07139083 108.91244886 -101.46875 93.97265625 C-94.94536067 81.39342426 -86.49677148 75.60729327 -74.12548828 69.20800781 C-63.26459954 63.48527324 -57.36120127 56.7404461 -51.69921875 45.953125 C-45.64941238 34.47677527 -39.21544322 26.54421197 -27.69921875 20.390625 C-14.29404948 13.35248006 -14.29404948 13.35248006 -4.34765625 2.171875 C-2.69921875 0.390625 -2.69921875 0.390625 0 0 Z " fill="#F9FDFE" transform="translate(199.69921875,-0.390625)"/>
<path d="M0 0 C1.23255109 12.03449187 1.23255109 12.03449187 -1.46484375 16.3359375 C-2.83930103 17.71311647 -4.23865762 19.065701 -5.65625 20.3984375 C-8.68826907 23.76397867 -10.44610124 27.39710726 -12.4375 31.4375 C-19.07069926 44.48335737 -27.21799997 51.31089873 -40 58 C-51.0089807 63.99663873 -57.86432328 70.70018613 -63.5 81.9375 C-71.51388036 97.06290824 -80.48610072 104.14499041 -95.75 111.9375 C-108.20757877 118.79636924 -113.57039152 129.69532552 -119.79248047 141.96630859 C-121.02687459 144.0452619 -122.10416345 145.49926414 -124 147 C-126.64996326 147.2172101 -129.05076558 147.28351554 -131.6875 147.1875 C-132.38939453 147.17396484 -133.09128906 147.16042969 -133.81445312 147.14648438 C-135.54329829 147.11120182 -137.27174765 147.05739583 -139 147 C-138.13375 146.030625 -137.2675 145.06125 -136.375 144.0625 C-131.36344188 138.17479535 -127.43744817 131.85830172 -123.78076172 125.06469727 C-117.30896546 113.15325646 -110.74571201 106.95711342 -98.69750977 100.67431641 C-86.55849638 94.32484003 -78.79928747 86.82275669 -72.625 74.625 C-64.63749586 59.00394317 -53.34383972 51.35854893 -37.73046875 43.8125 C-30.06351943 38.72313736 -25.60747255 32.23500409 -21.5625 24.125 C-8.91056232 0 -8.91056232 0 0 0 Z " fill="#F9FDFE" transform="translate(208,61)"/>
<path d="M0 0 C0.33 0 0.66 0 1 0 C2.31616425 11.42300574 2.31616425 11.42300574 -0.30078125 16.546875 C-5.87171134 22.66485033 -13.41837482 26.0885375 -20.61767578 29.93017578 C-33.12357358 36.65730955 -39.19205767 44.13601192 -45.578125 56.59765625 C-51.63629771 68.11364222 -59.92363758 75.62606308 -71.4375 81.4375 C-84.69419849 88.21451847 -91.22190492 96.22400123 -98.02441406 109.17919922 C-103.84821478 120.04854501 -110.853694 126.846075 -121.8125 132.375 C-135.459699 139.66347963 -142.55521645 146.89329267 -149.578125 160.59765625 C-156.15805385 173.10544893 -165.28300035 180.32044595 -177.6796875 186.56738281 C-185.07886479 190.38176366 -192.01889663 195.1190956 -196.125 202.5625 C-198 205 -198 205 -200.0078125 205.36328125 C-202.25 205.375 -202.25 205.375 -206 205 C-200.35336719 191.03201358 -191.06565307 184.74202385 -178.2644043 177.95849609 C-166.08690202 171.4661183 -160.32585624 163.98938992 -154 152 C-147.7075371 140.33948241 -140.67115559 133.63760214 -129 127.4375 C-115.67634573 120.35044986 -108.98793578 113.24422871 -102 100 C-95.7075371 88.33948241 -88.67115559 81.63760214 -77 75.4375 C-63.67634573 68.35044986 -56.98793578 61.24422871 -50 48 C-43.09216323 35.19913753 -35.02089309 28.74364503 -22.31933594 22.01806641 C-12.66277288 16.86078928 -6.36354397 11.6260922 -1.09375 1.90625 C-0.55234375 0.96265625 -0.55234375 0.96265625 0 0 Z " fill="#FBFEFE" transform="translate(207,3)"/>
<path d="M0 0 C-5.46772646 8.96707139 -12.2285267 14.10425585 -21.4375 19 C-29.7025994 23.41277256 -38.36372529 28.03724485 -43 36.5625 C-43.71736328 37.8309375 -43.71736328 37.8309375 -44.44921875 39.125 C-45.58254995 41.22608756 -46.70923629 43.33076319 -47.83203125 45.4375 C-48.32413086 46.33746704 -48.32413086 46.33746704 -48.82617188 47.25561523 C-49.75968623 48.96574884 -50.67153798 50.68765574 -51.58203125 52.41015625 C-57.20238027 61.47602358 -65.21513191 66.66832303 -74.5 71.4375 C-87.69326193 78.61493372 -93.89432571 85.38931584 -100.62841797 98.73657227 C-106.82233867 110.82644753 -115.59033115 117.44046002 -127.21606445 123.90527344 C-139.31248503 130.66762518 -145.3391872 137.2547649 -151.83203125 149.4375 C-152.16009766 150.03747803 -152.48816406 150.63745605 -152.82617188 151.25561523 C-153.75968623 152.96574884 -154.67153798 154.68765574 -155.58203125 156.41015625 C-161.20546769 165.48199916 -169.35748974 170.84257113 -178.625 175.6875 C-185.40171228 179.28160903 -191.37668351 182.7468458 -197 188 C-198.19068962 179.63209793 -198.19068962 179.63209793 -195.74609375 176.28125 C-191.99201563 173.36231237 -187.73356267 171.3269956 -183.52783203 169.14648438 C-170.52871998 162.3901757 -163.80241571 154.89261268 -157 142 C-150.15917618 129.32331874 -142.11974851 122.53360744 -129.35888672 116.06860352 C-121.65262809 112.10643042 -114.97238813 107.42920007 -110.4375 99.875 C-109.57898438 98.46541016 -109.57898438 98.46541016 -108.703125 97.02734375 C-106.93014874 93.87583779 -105.31511629 90.66611269 -103.6875 87.4375 C-97.22231903 75.48115004 -88.92848143 70.14101655 -77.26391602 63.95776367 C-65.08594166 57.46734886 -59.32539138 49.98850888 -53 38 C-46.11115094 25.23432351 -38.05073973 18.66421338 -25.31274414 12.04003906 C-19.69170849 9.08065962 -15.39878662 5.90406475 -10.8984375 1.39453125 C-7.40329738 -1.17288649 -4.15480224 -0.52759394 0 0 Z " fill="#FAFDFE" transform="translate(197,0)"/>
<path d="M0 0 C0.33 0 0.66 0 1 0 C1 2.97 1 5.94 1 9 C0.113125 9.495 -0.77375 9.99 -1.6875 10.5 C-3.12527557 11.3328578 -4.56272157 12.16628457 -6 13 C-7.52367187 13.85658203 -7.52367187 13.85658203 -9.078125 14.73046875 C-20.44561428 21.35269216 -26.30679746 28.45942201 -32.4375 40 C-39.64752808 53.54391022 -47.84337077 60.25264555 -61.44921875 67.26171875 C-73.40784696 73.54365085 -79.4865028 81.97300561 -85.44921875 93.8984375 C-90.59089383 103.95639916 -96.97802183 110.35001745 -107.03515625 115.484375 C-121.26373579 122.75800986 -129.02065576 130.03835876 -136.4375 144 C-143.14604184 156.60187719 -150.37431247 163.27744849 -163 170 C-164.73063174 170.95568505 -166.45996328 171.91373156 -168.1875 172.875 C-168.90292969 173.26429688 -169.61835938 173.65359375 -170.35546875 174.0546875 C-171.98079976 174.89391567 -171.98079976 174.89391567 -173 176 C-174.85287502 176.07226502 -176.70833878 176.0838122 -178.5625 176.0625 C-179.57441406 176.05347656 -180.58632812 176.04445312 -181.62890625 176.03515625 C-182.80259766 176.01775391 -182.80259766 176.01775391 -184 176 C-179.42054665 169.93410114 -174.87087336 166.87794847 -168.125 163.5 C-159.4382596 159.11104721 -151.5731001 154.42986388 -146.4375 145.875 C-145.57898438 144.46541016 -145.57898438 144.46541016 -144.703125 143.02734375 C-142.93014874 139.87583779 -141.31511629 136.66611269 -139.6875 133.4375 C-133.22231903 121.48115004 -124.92848143 116.14101655 -113.26391602 109.95776367 C-101.08594166 103.46734886 -95.32539138 95.98850888 -89 84 C-82.15917618 71.32331874 -74.11974851 64.53360744 -61.35888672 58.06860352 C-53.65262809 54.10643042 -46.97238813 49.42920007 -42.4375 41.875 C-41.86515625 40.93527344 -41.2928125 39.99554688 -40.703125 39.02734375 C-38.93014874 35.87583779 -37.31511629 32.66611269 -35.6875 29.4375 C-28.27312229 15.72575781 -17.38796018 9.90529629 -3.90429688 3.078125 C-1.8476722 2.02564569 -1.8476722 2.02564569 0 0 Z " fill="#FAFDFE" transform="translate(207,32)"/>
<path d="M0 0 C-2.1230309 2.31171723 -4.11156738 3.73163668 -6.9140625 5.12890625 C-21.70051176 12.73390571 -29.35839278 20.64574645 -36.75756836 35.60498047 C-42.47044555 46.78544359 -50.65123867 52.93807681 -61.625 58.625 C-72.14459248 64.11584672 -79.05674781 69.26844306 -84.5625 79.875 C-85.32966594 81.28904624 -86.09918676 82.70181749 -86.87109375 84.11328125 C-87.2357373 84.78439941 -87.60038086 85.45551758 -87.97607422 86.14697266 C-94.11975873 97.26537166 -101.24903675 104.0519044 -112.4375 110 C-125.54583418 116.99859669 -133.48306824 124.41159103 -139.8125 137.9375 C-146.52469064 151.65903555 -157.62337127 158.68868874 -171 165 C-171.56587111 159.86943526 -171.56587111 159.86943526 -171 157 C-168.7225636 155.00368959 -167.06070015 153.84482196 -164.4375 152.5 C-154.60460107 147.23497687 -149.64097678 139.9321941 -144.6875 130.125 C-137.4804596 116.6557633 -129.62875813 110.04707597 -116.26293945 102.95605469 C-104.08366639 96.4705259 -98.32428436 88.98641074 -92 77 C-85.7075371 65.33948241 -78.67115559 58.63760214 -67 52.4375 C-53.67634573 45.35044986 -46.98793578 38.24422871 -40 25 C-31.02434876 8.36728545 -19.53784112 -1.54020937 0 0 Z " fill="#FAFDFE" transform="translate(171,0)"/>
<path d="M0 0 C0.49681596 3.14650109 0.78210027 4.97800711 0 8 C-1.98743028 10.04371915 -4.0561174 11.51785387 -6.4453125 13.06640625 C-13.06052745 18.073335 -16.59179235 24.60991833 -20.3125 31.875 C-27.39444221 45.01972068 -34.55788006 50.97365591 -47.61816406 57.92724609 C-60.36096065 64.76954281 -66.44439705 72.64773159 -73.02441406 85.17919922 C-79.94121265 98.08847946 -88.78263806 104.38625383 -101.55078125 111.10546875 C-110.89632547 116.16406608 -116.67329498 121.45619042 -121.5625 130.875 C-122.32966594 132.28904624 -123.09918676 133.70181749 -123.87109375 135.11328125 C-124.2357373 135.78439941 -124.60038086 136.45551758 -124.97607422 137.14697266 C-127.07848326 140.95176154 -129.39346503 144.52462004 -132 148 C-132.47179687 148.6909375 -132.94359375 149.381875 -133.4296875 150.09375 C-136.25668701 153.63804789 -137.95960051 154.87437547 -142.55859375 155.4296875 C-146.06759183 155.43675497 -149.50530891 155.30536136 -153 155 C-150.63391672 153.08222724 -148.27266598 151.19366029 -145.7890625 149.4296875 C-136.71167686 142.90838879 -131.83126579 134.16864795 -126.92749023 124.35351562 C-121.27867146 113.25346139 -112.25011707 107.60411772 -101.4375 102.0625 C-89.30787072 95.73137368 -83.28798647 87.91761538 -77 76 C-70.15917618 63.32331874 -62.11974851 56.53360744 -49.35888672 50.06860352 C-41.05946488 45.80145554 -34.62485991 40.93374132 -29.875 32.75 C-29.20984375 31.62464844 -28.5446875 30.49929687 -27.859375 29.33984375 C-26.20221523 26.36322274 -24.66025514 23.35282268 -23.125 20.3125 C-19.28243582 13.17928466 -9.29367716 0 0 0 Z " fill="#FAFEFE" transform="translate(208,53)"/>
<path d="M0 0 C1.98938966 10.21711232 -3.80642822 17.75453553 -9 26 C-9.556875 26.9178125 -10.11375 27.835625 -10.6875 28.78125 C-16.21658874 37.55567344 -22.61229915 42.73462 -31.8125 47.375 C-45.71136547 54.78125917 -52.79572507 62.41235303 -60.02441406 76.17919922 C-65.84781414 87.04779727 -72.85345393 93.84749696 -83.8125 99.375 C-96.91830796 106.35866428 -104.34491749 113.39247561 -111.1875 126.5234375 C-113 130 -113 130 -115 133 C-117.1640625 133.29296875 -117.1640625 133.29296875 -119.625 133.1875 C-120.44226563 133.16042969 -121.25953125 133.13335937 -122.1015625 133.10546875 C-122.72804688 133.07066406 -123.35453125 133.03585938 -124 133 C-122.05670377 129.57703659 -120.10758249 126.15776801 -118.14453125 122.74609375 C-116.88819492 120.56195056 -115.65704514 118.37196931 -114.44921875 116.16015625 C-108.06797654 104.78177225 -99.81181783 98.87097375 -88.35888672 93.06860352 C-80.65262809 89.10643042 -73.97238813 84.42920007 -69.4375 76.875 C-68.57898438 75.46541016 -68.57898438 75.46541016 -67.703125 74.02734375 C-65.93014874 70.87583779 -64.31511629 67.66611269 -62.6875 64.4375 C-56.30278204 52.62995391 -48.01388344 46.92409444 -36.30786133 41.01708984 C-28.60923229 37.08405376 -21.96128945 32.41071193 -17.4375 24.875 C-16.58671875 23.47314453 -16.58671875 23.47314453 -15.71875 22.04296875 C-13.88352499 18.79378628 -12.15892788 15.49822863 -10.4375 12.1875 C-4.01004464 0 -4.01004464 0 0 0 Z " fill="#FBFEFE" transform="translate(208,75)"/>
<path d="M0 0 C0.33 0 0.66 0 1 0 C2.31287988 11.39450072 2.31287988 11.39450072 -0.265625 16.51171875 C-5.9766983 22.7915778 -13.88031086 26.62744042 -21.28393555 30.57666016 C-33.21164121 37.00019811 -40.09636569 44.72219927 -45.8125 56.9375 C-51.87439481 69.31321251 -61.80883283 77.13722354 -74.0625 82.9375 C-81.36998794 86.46913941 -87.30404024 91.02007424 -91.5625 98 C-94 101 -94 101 -96.078125 101.43359375 C-98.3125 101.4375 -98.3125 101.4375 -102 101 C-101.2579194 99.43372332 -100.50591622 97.87214641 -99.75 96.3125 C-99.33234375 95.44238281 -98.9146875 94.57226562 -98.484375 93.67578125 C-93.13823711 84.03866426 -83.84025555 78.82170466 -74.3125 73.9375 C-59.94438506 66.4925464 -53.95369183 56.0842605 -46.67578125 41.9453125 C-41.14331805 32.22158929 -32.0894884 26.95088661 -22.375 22 C-12.78982906 17.0571202 -6.30152295 11.51169788 -1.09375 1.90625 C-0.7328125 1.2771875 -0.371875 0.648125 0 0 Z " fill="#FAFDFE" transform="translate(207,107)"/>
<path d="M0 0 C0.67867631 4.17488761 0.93394722 7.85202212 0 12 C-2.43183789 14.32667733 -4.79030361 15.64864674 -7.8125 17.109375 C-15.8796592 21.89430766 -20.33424181 28.65284323 -24.4375 36.875 C-28.50500802 44.59529527 -32.35640515 51.19422973 -39 57 C-39.67417969 57.63421875 -40.34835938 58.2684375 -41.04296875 58.921875 C-49.24050503 65.24776141 -60.20570942 63.52715613 -70 63 C-66.78684497 59.34281601 -63.17902901 57.41298702 -58.875 55.3125 C-44.83548934 48.06788849 -37.76771724 38.06107727 -30.5 24.25 C-25.54556945 15.27935333 -18.93503542 9.75618808 -10 5 C-8.31225823 4.04209251 -6.62474438 3.08378331 -4.9375 2.125 C-1.13522013 0 -1.13522013 0 0 0 Z " fill="#F9FDFE" transform="translate(208,145)"/>
<path d="M0 0 C0.66 0 1.32 0 2 0 C2.86486486 5.01621622 2.86486486 5.01621622 2 8 C-0.98037437 10.63266403 -4.45345408 12.24126207 -8 14 C-18.90131383 19.79336289 -24.90716661 26.51122626 -30.4375 37.4375 C-37.9743787 52.31580897 -48.57329094 60.70264329 -63.53125 67.73828125 C-66.09302069 68.88778948 -66.09302069 68.88778948 -68 71 C-70.6015625 71.1953125 -70.6015625 71.1953125 -73.625 71.125 C-74.62789062 71.10695313 -75.63078125 71.08890625 -76.6640625 71.0703125 C-77.43492187 71.04710937 -78.20578125 71.02390625 -79 71 C-74.42525811 64.94277219 -69.91665464 61.93769704 -63.1875 58.5625 C-49.77754928 51.45068692 -43.02411609 44.31280122 -36 31 C-28.00586727 16.18613032 -17.47993211 9.51836912 -2.80664062 1.98046875 C-1.03508726 1.1298215 -1.03508726 1.1298215 0 0 Z " fill="#F9FDFE" transform="translate(206,137)"/>
<path d="M0 0 C10.56 0 21.12 0 32 0 C29.03 3.96 29.03 3.96 26 8 C23.57161016 11.70648975 21.32382001 15.39729536 19.2265625 19.30078125 C14.40914395 28.22524913 9.37694689 36.31152655 0 41 C0 27.47 0 13.94 0 0 Z " fill="#F8FDFE" transform="translate(0,0)"/>
<path d="M0 0 C1.46856445 0.03383789 1.46856445 0.03383789 2.96679688 0.06835938 C5.37527455 0.12710273 7.78059078 0.20917871 10.1875 0.3125 C6.79764241 2.88047995 3.30483405 5.1691746 -0.30078125 7.421875 C-7.26880077 12.66685392 -11.28855437 18.39047661 -15.1875 26.125 C-21.88948377 38.75905981 -28.7405665 46.90385728 -41.8125 53.3125 C-42.1425 53.3125 -42.4725 53.3125 -42.8125 53.3125 C-43.6065296 49.09973187 -43.76993788 45.51049687 -42.8125 41.3125 C-40.59005825 38.78046438 -38.34187612 36.83528469 -35.72705078 34.74536133 C-29.51686942 29.61564611 -26.40406969 23.16850847 -22.76464844 16.10986328 C-20.75765602 12.32127913 -18.45657351 8.68717278 -15.8125 5.3125 C-15.15378906 4.4153125 -14.49507812 3.518125 -13.81640625 2.59375 C-9.36036884 -0.79028882 -5.43028161 -0.23705057 0 0 Z " fill="#F9FDFE" transform="translate(42.8125,-0.3125)"/>
<path d="M0 0 C1 3 1 3 -0.1171875 5.41796875 C-6.85344294 16.03131344 -14.02182499 21.61289614 -25 27.4375 C-38.11083854 34.47806548 -44.06479447 41.63796081 -50.98657227 54.68408203 C-58.17180238 68.14741168 -67.1707209 74.53011589 -80.625 81.375 C-92.0380538 87.55258454 -97.05390276 95.49511093 -102.98486328 106.68310547 C-110.1756457 120.14535837 -119.16788121 126.52867119 -132.625 133.375 C-144.0285692 139.54745078 -148.99347199 147.44701853 -154.92114258 158.61499023 C-161.63984907 171.13935124 -169.63918596 177.53131461 -182 184 C-193.06617834 190.02779453 -199.98197674 196.87577519 -206 208 C-207 205 -207 205 -206.03125 202.765625 C-199.19592457 191.53616179 -191.34893999 186.16157612 -180 180 C-169.02168238 173.99129118 -162.17291586 167.36078997 -156.5625 156.125 C-149.33091536 142.46187851 -141.56794263 135.10775177 -128 128 C-116.19417681 121.50358914 -110.36886158 114.41833718 -103.96435547 102.74707031 C-96.97189138 90.07920373 -89.6974664 83.29929475 -77 76.5625 C-63.90157333 69.52859973 -57.99442766 62.40556208 -51.07714844 49.3840332 C-44.36183061 36.85540277 -36.35701969 30.47339327 -24 24 C-12.74138338 17.80470145 -6.57730198 11.05546504 0 0 Z " fill="#189DD0" transform="translate(207,0)"/>
<path d="M0 0 C0.33 0.99 0.66 1.98 1 3 C-5.33478793 9.58382136 -11.77952236 13.83452691 -19.93334961 17.81616211 C-23.41074682 19.53256713 -26.44318029 21.22546356 -29.390625 23.765625 C-32 26 -32 26 -34 26 C-34.39445312 26.83337891 -34.39445312 26.83337891 -34.796875 27.68359375 C-36.13442649 30.25881464 -37.66186594 32.6337995 -39.25 35.0625 C-41.68751497 38.83687885 -43.88612862 42.62904095 -45.9375 46.625 C-51.08344275 56.14295744 -57.50192644 61.99217918 -67 67 C-73.18657807 70.28267408 -78.71720043 73.39448242 -84 78 C-84.66 78 -85.32 78 -86 78 C-86.26296875 78.55558594 -86.5259375 79.11117187 -86.796875 79.68359375 C-88.13442649 82.25881464 -89.66186594 84.6337995 -91.25 87.0625 C-93.68751497 90.83687885 -95.88612862 94.62904095 -97.9375 98.625 C-103.10907318 108.19036359 -109.52240548 113.90563132 -119 119 C-120.85336946 120.03107462 -122.70124977 121.07120785 -124.54638672 122.11694336 C-125.78271562 122.81682746 -127.02251509 123.51062516 -128.26611328 124.19750977 C-131.25160566 125.87226735 -133.63341797 127.54210291 -136 130 C-136.66 130 -137.32 130 -138 130 C-138.26296875 130.55558594 -138.5259375 131.11117187 -138.796875 131.68359375 C-140.13442649 134.25881464 -141.66186594 136.6337995 -143.25 139.0625 C-145.68751497 142.83687885 -147.88612862 146.62904095 -149.9375 150.625 C-155.08344275 160.14295744 -161.50192644 165.99217918 -171 171 C-177.18657807 174.28267408 -182.71720043 177.39448242 -188 182 C-188.66 182 -189.32 182 -190 182 C-190.2475 182.556875 -190.495 183.11375 -190.75 183.6875 C-192.21606015 186.39971127 -194.02989471 188.63587365 -196 191 C-196.66 190.67 -197.32 190.34 -198 190 C-197.17957433 188.8035459 -196.34258026 187.6184569 -195.5 186.4375 C-195.0359375 185.77621094 -194.571875 185.11492187 -194.09375 184.43359375 C-187.66373449 176.95990034 -180.13415952 172.63422685 -171.421875 168.27148438 C-160.58443974 162.61175016 -155.07063873 155.21062957 -149.5 144.5 C-143.87004159 133.67531687 -138.03252053 126.00449346 -127.0625 120.375 C-125.65637085 119.61415819 -124.25141275 118.85114802 -122.84765625 118.0859375 C-122.18266113 117.72725586 -121.51766602 117.36857422 -120.83251953 116.99902344 C-109.81145342 110.99073639 -103.19353237 103.70331081 -97.5625 92.5625 C-89.62115457 76.95738387 -78.30722684 69.34085367 -62.73046875 61.8125 C-54.49864096 56.34816796 -49.98447089 49.12226198 -45.5 40.5 C-39.87074158 29.67666275 -34.03299212 22.00209434 -23.0625 16.375 C-21.6588507 15.61830218 -20.25649609 14.85919767 -18.85546875 14.09765625 C-18.1907959 13.73945801 -17.52612305 13.38125977 -16.84130859 13.01220703 C-10.35914111 9.44881981 -5.02539242 5.41196107 0 0 Z " fill="#1C9FD1" transform="translate(207,17)"/>
<path d="M0 0 C0.99 0.495 0.99 0.495 2 1 C-4.97648175 10.89269599 -12.86992764 16.74667371 -23.59570312 22.07250977 C-26.82215437 23.7006097 -29.58647453 25.37696404 -32.33203125 27.7421875 C-35 30 -35 30 -37 30 C-37.39445312 30.83337891 -37.39445312 30.83337891 -37.796875 31.68359375 C-39.13442649 34.25881464 -40.66186594 36.6337995 -42.25 39.0625 C-44.68751497 42.83687885 -46.88612862 46.62904095 -48.9375 50.625 C-54.10907318 60.19036359 -60.52240548 65.90563132 -70 71 C-71.85336946 72.03107462 -73.70124977 73.07120785 -75.54638672 74.11694336 C-76.78271562 74.81682746 -78.02251509 75.51062516 -79.26611328 76.19750977 C-82.25160566 77.87226735 -84.63341797 79.54210291 -87 82 C-87.66 82 -88.32 82 -89 82 C-89.25136719 82.53238281 -89.50273438 83.06476563 -89.76171875 83.61328125 C-91.29703638 86.57252123 -93.045887 89.36024364 -94.8125 92.1875 C-97.17925267 95.97727332 -99.44786804 99.77880949 -101.5 103.75 C-107.04027512 113.78139515 -114.70640359 119.30624731 -124.73046875 124.3828125 C-138.49966599 131.49074789 -145.89450107 141.10546318 -152.9375 154.625 C-158.08344275 164.14295744 -164.50192644 169.99217918 -174 175 C-180.18657807 178.28267408 -185.71720043 181.39448242 -191 186 C-191.66 186 -192.32 186 -193 186 C-193.28875 186.639375 -193.5775 187.27875 -193.875 187.9375 C-195 190 -195 190 -197 191 C-196.14791463 185.8306821 -192.81772775 183.28578018 -188.77929688 180.20654297 C-184.23690429 177.12634207 -179.26081846 174.66397001 -174.36010742 172.20874023 C-163.99715472 166.85309239 -158.35629024 159.76741011 -153 149.5625 C-146.95019363 138.08615027 -140.51622447 130.15358697 -129 124 C-114.44880311 116.18364762 -106.37217208 108.52182386 -98.76953125 93.58203125 C-92.24614192 81.00279926 -83.79755273 75.21666827 -71.42626953 68.81738281 C-60.56538079 63.09464824 -54.66198252 56.3498211 -49 45.5625 C-42.95019363 34.08615027 -36.51622447 26.15358697 -25 20 C-14.96358206 14.60881604 -6.83952886 9.3397796 0 0 Z " fill="#199DD0" transform="translate(197,0)"/>
<path d="M0 0 C0.99 0.33 1.98 0.66 3 1 C-2.60505851 7.0375476 -8.77259471 10.64626938 -16 14.4375 C-29.10072047 21.4640231 -35.00745725 28.59798619 -41.92285156 41.6159668 C-48.63658948 54.14164962 -56.64129145 60.53241646 -69 67 C-79.9841839 72.98313181 -86.83387571 79.65281127 -92.4375 90.875 C-99.66743149 104.53499808 -107.43007034 111.89855786 -121 119 C-131.9841839 124.98313181 -138.83387571 131.65281127 -144.4375 142.875 C-151.68075406 156.56016932 -159.44593097 163.84773985 -173 171 C-174.92519197 172.13145085 -176.84300543 173.27564079 -178.75 174.4375 C-180.81685322 175.69335287 -182.83733569 176.91866785 -185 178 C-185 177.01 -185 176.02 -185 175 C-184.10539063 174.49210938 -183.21078125 173.98421875 -182.2890625 173.4609375 C-179.12438599 171.66208724 -175.96806675 169.84894867 -172.8125 168.03417969 C-171.25775729 167.14707164 -169.6923671 166.2786699 -168.125 165.4140625 C-158.37259547 159.89785869 -152.53226956 153.07778931 -147.5625 143.125 C-140.33256851 129.46500192 -132.56992966 122.10144214 -119 115 C-108.0158161 109.01686819 -101.16612429 102.34718873 -95.5625 91.125 C-88.33256851 77.46500192 -80.56992966 70.10144214 -67 63 C-56.0158161 57.01686819 -49.16612429 50.34718873 -43.5625 39.125 C-36.32762701 25.45566561 -28.56396109 18.12031064 -15 11 C-9.34153898 7.82555834 -4.31586032 4.89130837 0 0 Z " fill="#189DD0" transform="translate(185,0)"/>
<path d="M0 0 C0 0.99 0 1.98 0 3 C-1.51171875 4.359375 -1.51171875 4.359375 -3.6875 5.75 C-4.50605469 6.27464844 -5.32460937 6.79929687 -6.16796875 7.33984375 C-9.22070191 9.12937698 -12.34350127 10.71385023 -15.5 12.3125 C-26.98208485 18.51975237 -32.01803799 26.42745666 -37.98486328 37.68310547 C-45.1756457 51.14535837 -54.16788121 57.52867119 -67.625 64.375 C-79.0380538 70.55258454 -84.05390276 78.49511093 -89.98486328 89.68310547 C-97.1756457 103.14535837 -106.16788121 109.52867119 -119.625 116.375 C-131.0380538 122.55258454 -136.05390276 130.49511093 -141.98486328 141.68310547 C-149.2278337 155.24306234 -158.3394255 161.54974938 -171.8125 168.5625 C-176.79139755 171.18234847 -180.35579917 173.73107903 -184 178 C-184.99 177.67 -185.98 177.34 -187 177 C-181.39494149 170.9624524 -175.22740529 167.35373062 -168 163.5625 C-154.89927953 156.5359769 -148.99254275 149.40201381 -142.07714844 136.3840332 C-135.36183061 123.85540277 -127.35701969 117.47339327 -115 111 C-103.19417681 104.50358914 -97.36886158 97.41833718 -90.96435547 85.74707031 C-83.44099423 72.11740625 -75.16530525 65.12931522 -61.35864258 58.20703125 C-52.63756589 53.70321264 -46.52966954 47.85711239 -41.9375 39.1875 C-41.26995566 37.96910457 -40.60065977 36.75166728 -39.9296875 35.53515625 C-39.60581055 34.93977051 -39.28193359 34.34438477 -38.94824219 33.73095703 C-30.33071274 18.00019395 -19.51504467 11.19851359 -3.92016602 3.10986328 C-1.85324273 2.02547319 -1.85324273 2.02547319 0 0 Z " fill="#179CCF" transform="translate(207,30)"/>
<path d="M0 0 C0.57493706 3.21964756 0.86637432 4.91486217 0 8 C-2.24039415 10.25776154 -4.58973826 11.97628039 -7.2265625 13.75 C-13.53949402 18.87147684 -17.12322978 25.83330545 -20.8125 32.9375 C-28.917339 47.77002419 -28.917339 47.77002419 -35 51 C-39.76976736 51.68429181 -44.22300361 51.55040783 -49 51 C-46.10745088 48.6529316 -43.18826322 46.42882086 -40.125 44.3125 C-32.76385161 38.72628272 -28.76406437 31.67587893 -24.6875 23.5625 C-20.37447176 15.07402459 -11.02878824 0 0 0 Z " fill="#FAFEFE" transform="translate(208,157)"/>
<path d="M0 0 C-0.55349121 0.28609131 -1.10698242 0.57218262 -1.67724609 0.86694336 C-20.06471133 10.45100302 -30.70021683 19.12715623 -40.5 37.75 C-45.4461501 46.70565383 -52.05550968 52.2840537 -61 57 C-67.18657807 60.28267408 -72.71720043 63.39448242 -78 68 C-78.66 68 -79.32 68 -80 68 C-80.26296875 68.55558594 -80.5259375 69.11117187 -80.796875 69.68359375 C-82.13442649 72.25881464 -83.66186594 74.6337995 -85.25 77.0625 C-87.68751497 80.83687885 -89.88612862 84.62904095 -91.9375 88.625 C-97.10162785 98.17659267 -103.51620481 103.93242263 -113 109 C-127.66425849 116.8770848 -135.13623243 124.58625897 -143.00097656 139.16748047 C-150.6063854 153.11816442 -160.94538562 159.51590797 -175 166 C-173.55686809 161.67060427 -170.275907 160.79478596 -166.4375 158.8125 C-154.08381158 152.10294635 -148.1594026 144.00032357 -141.734375 131.546875 C-136.50051905 121.56765633 -129.88184196 115.28026995 -120 110 C-105.22046763 102.06099444 -97.20329573 94.22749368 -89.51171875 79.06640625 C-88.79435547 77.67228516 -88.79435547 77.67228516 -88.0625 76.25 C-87.66160156 75.43015625 -87.26070313 74.6103125 -86.84765625 73.765625 C-80.66242863 64.50739846 -72.14405292 59.95559691 -62.48828125 54.93359375 C-53.76761924 50.24494192 -47.11155247 44.87486587 -42.3125 36.0625 C-41.73886719 35.03511719 -41.16523438 34.00773437 -40.57421875 32.94921875 C-39.62367391 31.16842135 -38.6850453 29.38108902 -37.76953125 27.58203125 C-32.0474941 16.54806883 -24.80185482 10.45343066 -14.1875 4.3125 C-13.25550781 3.77069092 -12.32351562 3.22888184 -11.36328125 2.6706543 C-3.91796061 -1.4586662 -3.91796061 -1.4586662 0 0 Z " fill="#1C9FD1" transform="translate(175,1)"/>
<path d="M0 0 C0 0.99 0 1.98 0 3 C-0.85722656 3.44730469 -1.71445313 3.89460938 -2.59765625 4.35546875 C-6.08727597 6.20060026 -9.54635391 8.08852255 -13 10 C-13.69480469 10.36996094 -14.38960937 10.73992188 -15.10546875 11.12109375 C-23.27594574 16.10877211 -28.31459409 26.50577259 -32.5625 34.75 C-38.39236298 45.76049121 -45.47954231 51.30531424 -56.25146484 57.03710938 C-59.85027402 59.01891661 -63.25826893 61.30859519 -66.6953125 63.5546875 C-69 65 -69 65 -71.1796875 65.9453125 C-73.52600202 67.30476512 -73.92759992 68.53435884 -75 71 C-76.06750687 72.69755602 -77.1525289 74.38416018 -78.25 76.0625 C-80.68751497 79.83687885 -82.88612862 83.62904095 -84.9375 87.625 C-90.10611374 97.1848898 -96.51991348 102.91628739 -106 108 C-107.82106716 108.99807008 -109.63718093 110.00403605 -111.44873047 111.01928711 C-113.22676345 112.01451044 -115.01357755 112.99399711 -116.80078125 113.97265625 C-124.78887992 119.03471145 -129.78859348 126.66515351 -134.22241211 134.8190918 C-140.57627293 146.4972215 -146.7482892 153.89504823 -158.64453125 160.19921875 C-161.44456281 161.70191322 -164.05283719 163.29469482 -166.6875 165.0625 C-167.780625 165.701875 -168.87375 166.34125 -170 167 C-170.99 166.67 -171.98 166.34 -173 166 C-168.88324167 162.81886856 -164.9157404 160.43414202 -160.1875 158.25 C-149.80399803 153.15571618 -143.33826048 146.10055074 -138 136 C-130.0676778 121.21855086 -122.2238786 113.20146171 -107.06640625 105.51171875 C-97.29226222 100.48230483 -91.58270505 94.75639877 -86.546875 84.99609375 C-78.53565324 69.47940919 -69.81705578 60.89868228 -54.30761719 53.15576172 C-44.17983051 47.95751616 -38.58937763 41.19407527 -33.5625 31.125 C-25.36487964 15.61262347 -15.64311098 7.66911138 0 0 Z " fill="#189CCF" transform="translate(207,41)"/>
<path d="M0 0 C-0.7734375 0.4125 -1.546875 0.825 -2.34375 1.25 C-3.3853125 1.8275 -4.426875 2.405 -5.5 3 C-7.03140625 3.8353125 -7.03140625 3.8353125 -8.59375 4.6875 C-16.59603147 9.72892543 -21.28789236 16.56472121 -25.4375 24.875 C-32.66743149 38.53499808 -40.43007034 45.89855786 -54 53 C-65.0082469 58.99623903 -71.86577296 65.699898 -77.5 76.9375 C-85.27806064 91.65126589 -93.81767539 98.84175201 -108.625 106.375 C-120.02341314 112.54465994 -125.00101598 120.44191722 -130.91674805 131.61279297 C-137.15587807 143.26395747 -144.18989323 149.96505543 -156 156 C-156 155.01 -156 154.02 -156 153 C-153.75580313 151.44101898 -151.38848461 150.25416093 -148.96875 148.98828125 C-141.20727032 143.79013236 -136.67956482 137.37010638 -132.5625 129.125 C-126.14608556 117.00203464 -119.68909629 109.34870663 -107.50390625 102.8671875 C-104.28456464 101.15164091 -101.1636771 99.35707317 -98.0625 97.4375 C-96.84240234 96.69306641 -96.84240234 96.69306641 -95.59765625 95.93359375 C-88.56548188 90.69911809 -84.543403 84.95845049 -80.625 77.1875 C-73.3556988 63.51491096 -65.59871472 56.116506 -52 49 C-41.0172948 43.01767364 -34.1632088 36.34776583 -28.5625 25.125 C-23.9080817 16.29072521 -12.56796436 -4.74534124 0 0 Z " fill="#1A9ED1" transform="translate(157,1)"/>
<path d="M0 0 C0 0.99 0 1.98 0 3 C-2.24419687 4.55898102 -4.61151539 5.74583907 -7.03125 7.01171875 C-14.81017614 12.22155218 -19.35869789 18.67990931 -23.5 26.9375 C-31.51388036 42.06290824 -40.48610072 49.14499041 -55.75 56.9375 C-66.50978695 62.86160235 -71.38782201 71.12301915 -76.984375 81.68286133 C-84.87926782 96.45952435 -95.59724337 102.88415885 -110.25 110.421875 C-112.63983566 111.79331478 -114.12084415 113.05037581 -116 115 C-116.66 115 -117.32 115 -118 115 C-118.27457031 115.57878906 -118.54914063 116.15757812 -118.83203125 116.75390625 C-119.97841046 118.95848165 -121.26280045 120.90388776 -122.6875 122.9375 C-125.22456004 126.66630253 -127.32293734 130.48509479 -129.375 134.5 C-134.64172401 144.36648297 -141.56505954 152.36584943 -152 157 C-154.328125 156.6796875 -154.328125 156.6796875 -156 156 C-154.83984375 155.38125 -154.83984375 155.38125 -153.65625 154.75 C-152.6146875 154.1725 -151.573125 153.595 -150.5 153 C-149.4790625 152.443125 -148.458125 151.88625 -147.40625 151.3125 C-139.40396853 146.27107457 -134.71210764 139.43527879 -130.5625 131.125 C-123.33256851 117.46500192 -115.56992966 110.10144214 -102 103 C-90.50216951 96.7370827 -83.82624412 89.74852522 -78 78 C-72.91393396 67.74403167 -67.34019041 60.32467433 -57.125 54.875 C-55.90598014 54.20622082 -54.68723164 53.53694678 -53.46875 52.8671875 C-51.75171875 51.94292969 -51.75171875 51.94292969 -50 51 C-39.02094948 44.99771689 -32.16986747 38.35789559 -26.5625 27.125 C-19.83380232 14.3829286 -13.00031912 6.64314107 0 0 Z " fill="#169CCF" transform="translate(207,51)"/>
<path d="M0 0 C0 0.99 0 1.98 0 3 C-5.34883721 8 -5.34883721 8 -8 8 C-8.41185547 8.86818359 -8.41185547 8.86818359 -8.83203125 9.75390625 C-9.97841046 11.95848165 -11.26280045 13.90388776 -12.6875 15.9375 C-15.22456004 19.66630253 -17.32293734 23.48509479 -19.375 27.5 C-25.35561358 38.71528629 -32.53251428 44.71174543 -43.73046875 50.3828125 C-57.49966599 57.49074789 -64.89450107 67.10546318 -71.9375 80.625 C-77.10162785 90.17659267 -83.51620481 95.93242263 -93 101 C-107.46035008 108.76755291 -115.21247837 116.56063699 -123 131 C-126.44291783 137.17407862 -129.73804047 142.23917947 -135 147 C-135.99 146.67 -136.98 146.34 -138 146 C-137.4855835 145.53706543 -136.97116699 145.07413086 -136.44116211 144.59716797 C-131.12332431 139.58640178 -127.80748972 134.62486893 -124.5625 128.125 C-115.95220878 111.83172541 -105.24739567 103.7952437 -88.73046875 95.8125 C-81.06194572 90.72209273 -76.6110033 84.2343449 -72.5625 76.125 C-63.95220878 59.83172541 -53.24739567 51.7952437 -36.73046875 43.8125 C-29.06351943 38.72313736 -24.60747255 32.23500409 -20.5625 24.125 C-15.40538263 14.29129234 -9.93673389 5.60533707 0 0 Z " fill="#1C9FD0" transform="translate(207,61)"/>
<path d="M0 0 C0.99 0.33 1.98 0.66 3 1 C2.29037109 1.5878125 2.29037109 1.5878125 1.56640625 2.1875 C-5.10031907 8.21744259 -8.79480889 15.36925317 -13.00097656 23.16748047 C-19.00881995 34.18773278 -26.2963422 40.80810471 -37.4375 46.4375 C-51.42654534 53.53605585 -58.76480904 62.85651011 -65.9375 76.625 C-71.10162785 86.17659267 -77.51620481 91.93242263 -87 97 C-101.66425849 104.8770848 -109.13623243 112.58625897 -117.00097656 127.16748047 C-121.29417699 135.0425446 -127.09930915 144.03310305 -136 147 C-134.61013153 143.7405115 -133.08784584 142.04511325 -130.3125 139.875 C-123.62877518 134.18056297 -119.55264683 127.17405165 -115.5625 119.4375 C-110.21351159 109.33385522 -104.00869162 103.34805088 -94 98 C-80.63966175 90.82333182 -72.76718713 84.30254773 -65.67480469 70.69775391 C-59.32355978 58.55906164 -51.82362324 50.7997261 -39.625 44.625 C-25.1646354 37.23099182 -17.99719664 27.49716437 -10.5 13.25 C-7.76687045 8.1876054 -3.94808599 4.14402078 0 0 Z " fill="#179CCF" transform="translate(136,0)"/>
<path d="M0 0 C0.99 0.33 1.98 0.66 3 1 C2.47212891 1.74830078 2.47212891 1.74830078 1.93359375 2.51171875 C-1.16570637 7.019056 -3.83742806 11.55675067 -6.3125 16.4375 C-12.81487398 28.56584104 -21.11144905 34.77846025 -33 41 C-43.9841839 46.98313181 -50.83387571 53.65281127 -56.4375 64.875 C-63.66743149 78.53499808 -71.43007034 85.89855786 -85 93 C-96.00458069 98.99424203 -102.8730207 105.6984473 -108.5 116.9375 C-112.28649273 124.1828401 -115.95690914 130.3897953 -122 136 C-122.33 135.01 -122.66 134.02 -123 133 C-122.52691406 132.54753906 -122.05382812 132.09507812 -121.56640625 131.62890625 C-116.7783781 126.69154389 -113.60798658 121.65747686 -110.5625 115.5625 C-103.92043604 102.51902658 -95.78606976 95.69123105 -83 89 C-72.0158161 83.01686819 -65.16612429 76.34718873 -59.5625 65.125 C-52.33256851 51.46500192 -44.56992966 44.10144214 -31 37 C-19.84612221 30.92443521 -12.9441109 24.01637251 -7.125 12.6875 C-6.19091682 10.92014317 -5.2560546 9.15319781 -4.3203125 7.38671875 C-3.72114014 6.22982544 -3.72114014 6.22982544 -3.10986328 5.04956055 C-2 3 -2 3 0 0 Z " fill="#189DD0" transform="translate(123,0)"/>
<path d="M0 0 C0.495 1.485 0.495 1.485 1 3 C0.29037109 3.67869141 0.29037109 3.67869141 -0.43359375 4.37109375 C-5.2216219 9.30845611 -8.39201342 14.34252314 -11.4375 20.4375 C-18.07956396 33.48097342 -26.21393024 40.30876895 -39 47 C-50.0089807 52.99663873 -56.86432328 59.70018613 -62.5 70.9375 C-70.51388036 86.06290824 -79.48610072 93.14499041 -94.75 100.9375 C-107.20757877 107.79636924 -112.57039152 118.69532552 -118.79248047 130.96630859 C-119.99372428 132.98943051 -121.26559758 134.42355544 -123 136 C-123.66 135.67 -124.32 135.34 -125 135 C-124.47212891 134.25169922 -124.47212891 134.25169922 -123.93359375 133.48828125 C-120.83429363 128.980944 -118.16257194 124.44324933 -115.6875 119.5625 C-109.95678862 108.87347746 -103.09227018 102.50629994 -92.50390625 96.8671875 C-89.28456464 95.15164091 -86.1636771 93.35707317 -83.0625 91.4375 C-81.84240234 90.69306641 -81.84240234 90.69306641 -80.59765625 89.93359375 C-72.25557196 83.72407236 -68.20586442 76.37061227 -63.62695312 67.18164062 C-58.92345368 58.09405381 -53.25092212 51.73826492 -44.1875 46.9375 C-42.97030291 46.27275465 -41.75416903 45.60605908 -40.5390625 44.9375 C-39.94383789 44.61394531 -39.34861328 44.29039063 -38.73535156 43.95703125 C-36.13227982 42.52145989 -33.59208244 40.99845445 -31.0625 39.4375 C-30.24910156 38.94121094 -29.43570313 38.44492188 -28.59765625 37.93359375 C-21.55129751 32.6885598 -17.4981112 26.91004647 -13.5625 19.125 C-9.75247797 11.86844459 -6.05762102 5.62369401 0 0 Z " fill="#169BCF" transform="translate(207,72)"/>
<path d="M0 0 C0.90105469 0.02707031 1.80210938 0.05414062 2.73046875 0.08203125 C3.76107422 0.13423828 3.76107422 0.13423828 4.8125 0.1875 C4.43738281 0.6721875 4.06226562 1.156875 3.67578125 1.65625 C-0.68281018 7.36523625 -4.55926018 13.15696554 -7.9609375 19.48828125 C-12.64032925 28.15704875 -17.77151346 37.03089333 -27.1875 41.1875 C-28.16191146 33.51400972 -28.16191146 33.51400972 -25.79296875 30.2890625 C-24.84357422 29.34160156 -24.84357422 29.34160156 -23.875 28.375 C-18.54394035 23.0534601 -15.41911 16.71585216 -11.95776367 10.10620117 C-11.51150635 9.25904541 -11.06524902 8.41188965 -10.60546875 7.5390625 C-10.01415161 6.39171631 -10.01415161 6.39171631 -9.41088867 5.22119141 C-6.79243804 0.86842873 -5.09855215 -0.19864489 0 0 Z " fill="#FAFDFE" transform="translate(27.1875,-0.1875)"/>
<path d="M0 0 C1 3 1 3 0.23071289 5.03369141 C-0.1844458 5.79858887 -0.59960449 6.56348633 -1.02734375 7.3515625 C-1.48568604 8.19895996 -1.94402832 9.04635742 -2.41625977 9.91943359 C-2.91826904 10.81227051 -3.42027832 11.70510742 -3.9375 12.625 C-4.44531006 13.5320166 -4.95312012 14.4390332 -5.47631836 15.37353516 C-11.45869003 25.83159313 -17.37629839 32.28848874 -28 38 C-29.82078898 39.01485758 -31.63597954 40.03896945 -33.44873047 41.06811523 C-35.22807789 42.07712689 -37.01427527 43.07403033 -38.80078125 44.0703125 C-48.28218663 49.78925543 -53.01094225 57.93969837 -57.9375 67.5625 C-64.27467591 79.70510309 -72.09127721 85.68517278 -84 92 C-85.88393156 93.06772561 -87.76014528 94.14929433 -89.625 95.25 C-90.38039063 95.68828125 -91.13578125 96.1265625 -91.9140625 96.578125 C-94.12482491 97.98766113 -94.12482491 97.98766113 -96.1484375 100.171875 C-98 102 -98 102 -100 102 C-100.2475 102.51433594 -100.495 103.02867187 -100.75 103.55859375 C-102.40110113 106.78340064 -104.19877961 109.92015356 -106 113.0625 C-106.35578125 113.68705078 -106.7115625 114.31160156 -107.078125 114.95507812 C-108.64667505 117.69711431 -110.2469207 120.37038104 -112 123 C-112.66 122.67 -113.32 122.34 -114 122 C-104.99557817 103.598593 -94.35668642 93.81467833 -75.73046875 84.8125 C-68.06194572 79.72209273 -63.6110033 73.2343449 -59.5625 65.125 C-50.95220878 48.83172541 -40.24739567 40.7952437 -23.73046875 32.8125 C-15.94102434 27.64182446 -11.3355521 20.88476738 -7.125 12.6875 C-6.19091682 10.92014317 -5.2560546 9.15319781 -4.3203125 7.38671875 C-3.72114014 6.22982544 -3.72114014 6.22982544 -3.10986328 5.04956055 C-2 3 -2 3 0 0 Z " fill="#199DD0" transform="translate(207,85)"/>
<path d="M0 0 C0.99 0.495 0.99 0.495 2 1 C-5.08182861 14.36039426 -11.30878538 24.68422736 -25 32 C-39.66425849 39.8770848 -47.13623243 47.58625897 -55.00097656 62.16748047 C-61.00926361 73.18854658 -68.29668919 79.80646763 -79.4375 85.4375 C-92.04539836 91.85358016 -99.14173404 99.58771096 -106 112 C-106.60328125 113.08152344 -107.2065625 114.16304688 -107.828125 115.27734375 C-109.24021442 117.84087992 -110.63136608 120.41307452 -112 123 C-112.72265625 121.41796875 -112.72265625 121.41796875 -113 119 C-111.90742268 116.62238595 -110.79496678 114.52893049 -109.4375 112.3125 C-109.06616943 111.69036621 -108.69483887 111.06823242 -108.31225586 110.42724609 C-107.56327263 109.18114724 -106.80790463 107.93886161 -106.04589844 106.70068359 C-105.1628096 105.26473662 -104.30153097 103.81541056 -103.4453125 102.36328125 C-97.91412504 93.41025748 -90.81377658 88.23647938 -81.5625 83.5625 C-70.2986069 77.85221296 -62.95262308 71.21651292 -57 60 C-49.34508482 46.04211169 -41.56862981 36.98550706 -27.0625 30.1875 C-15.36975175 24.4228414 -9.19452365 16.04427773 -3 5 C-2.00498154 3.33035451 -1.00678327 1.66257788 0 0 Z " fill="#199DD0" transform="translate(113,0)"/>
<path d="M0 0 C0.99 0.495 0.99 0.495 2 1 C-5.3424734 14.59138693 -12.6800106 20.76830007 -26 28 C-36.97831762 34.00870882 -43.82708414 40.63921003 -49.4375 51.875 C-56.66743149 65.53499808 -64.43007034 72.89855786 -78 80 C-89.51522433 86.27239179 -96.24206426 93.13516272 -102 105 C-102.6796875 103.328125 -102.6796875 103.328125 -103 101 C-97.6155761 88.8756329 -88.27167187 82.54282218 -77 76.5625 C-63.90157333 69.52859973 -57.99442766 62.40556208 -51.07714844 49.3840332 C-44.36341052 36.85835038 -36.35870855 30.46758354 -24 24 C-12.93382166 17.97220547 -6.01802326 11.12422481 0 0 Z " fill="#179CD0" transform="translate(103,0)"/>
<path d="M0 0 C0.6796875 1.671875 0.6796875 1.671875 1 4 C-4.8727154 17.22387663 -15.70015135 23.74902218 -27.99291992 30.14453125 C-32.28766268 32.39417793 -35.7009757 34.3702252 -39 38 C-39.66 38 -40.32 38 -41 38 C-41.27328125 38.56589844 -41.5465625 39.13179687 -41.828125 39.71484375 C-43.03653423 42.07124175 -44.366367 44.30479776 -45.75 46.5625 C-47.94389411 50.16599757 -49.94665581 53.81118561 -51.875 57.5625 C-59.38462075 71.26900574 -71.08626968 77.63809277 -84.66015625 84.578125 C-87.17210067 86.10458204 -88.93754135 87.92423516 -91 90 C-91.66 90 -92.32 90 -93 90 C-93.25523438 90.54140625 -93.51046875 91.0828125 -93.7734375 91.640625 C-95.23649704 94.45491788 -96.90992588 97.08210692 -98.625 99.75 C-99.25664063 100.73484375 -99.88828125 101.7196875 -100.5390625 102.734375 C-101.02117187 103.48203125 -101.50328125 104.2296875 -102 105 C-102.66 104.67 -103.32 104.34 -104 104 C-97.03895349 91.11465859 -90.39000421 84.90351959 -77.75146484 77.97314453 C-75.14694152 76.52602578 -72.59857868 75.00112368 -70.0625 73.4375 C-68.84240234 72.69306641 -68.84240234 72.69306641 -67.59765625 71.93359375 C-60.56548188 66.69911809 -56.543403 60.95845049 -52.625 53.1875 C-45.33279846 39.47183846 -37.56782151 32.20790518 -24 25 C-12.91638491 18.72305472 -5.64085509 11.47154665 0 0 Z " fill="#179CCF" transform="translate(207,103)"/>
<path d="M0 0 C0.495 1.485 0.495 1.485 1 3 C-4.67483668 8.89792608 -10.22674817 12.88055626 -17.5 16.5 C-31.47667284 23.54710042 -38.78385474 32.89306969 -45.9375 46.625 C-51.10162785 56.17659267 -57.51620481 61.93242263 -67 67 C-77.03641794 72.39118396 -85.16047114 77.6602204 -92 87 C-92.66 86.67 -93.32 86.34 -94 86 C-87.51732738 76.80752854 -80.494062 71.18414832 -70.5625 66.125 C-59.7748852 60.58156963 -52.69664877 53.73418115 -47 43 C-40.41282963 30.98902587 -34.1987227 22.51827353 -22 16 C-13.66366974 11.52203881 -6.25751722 7.30691452 0 0 Z " fill="#1B9FD1" transform="translate(207,121)"/>
<path d="M0 0 C0.99 0.495 0.99 0.495 2 1 C-4.48334192 10.19342054 -11.50645834 15.81366743 -21.4375 20.875 C-35.33092754 28.04502255 -42.31309063 38.09248452 -49.5 51.75 C-54.46319161 60.73650972 -61.06778358 66.22715359 -70 71 C-78.33633026 75.47796119 -85.74248278 79.69308548 -92 87 C-92.33 86.01 -92.66 85.02 -93 84 C-87.32482383 78.10172108 -81.7729901 74.12051397 -74.5 70.5 C-60.06739994 63.20182181 -52.95997349 53.42642803 -45.5 39.25 C-40.53680839 30.26349028 -33.93221642 24.77284641 -25 20 C-14.96358206 14.60881604 -6.83952886 9.3397796 0 0 Z " fill="#199DD0" transform="translate(93,0)"/>
<path d="M0 0 C0.99 0.33 1.98 0.66 3 1 C-2.60505851 7.0375476 -8.77259471 10.64626938 -16 14.4375 C-29.10072047 21.4640231 -35.00745725 28.59798619 -41.92285156 41.6159668 C-48.64931533 54.16539197 -56.65477888 60.48562908 -69 67 C-70.92519197 68.13145085 -72.84300543 69.27564079 -74.75 70.4375 C-76.81685322 71.69335287 -78.83733569 72.91866785 -81 74 C-81 73.01 -81 72.02 -81 71 C-80.10539062 70.49210937 -79.21078125 69.98421875 -78.2890625 69.4609375 C-75.12438599 67.66208724 -71.96806675 65.84894867 -68.8125 64.03417969 C-67.25775729 63.14707164 -65.6923671 62.2786699 -64.125 61.4140625 C-54.37259547 55.89785869 -48.53226956 49.07778931 -43.5625 39.125 C-36.32762701 25.45566561 -28.56396109 18.12031064 -15 11 C-9.34153898 7.82555834 -4.31586032 4.89130837 0 0 Z " fill="#179CCF" transform="translate(81,0)"/>
<path d="M0 0 C0.495 1.485 0.495 1.485 1 3 C-0.34191406 3.76183594 -0.34191406 3.76183594 -1.7109375 4.5390625 C-4.87561401 6.33791276 -8.03193325 8.15105133 -11.1875 9.96582031 C-12.74224271 10.85292836 -14.3076329 11.7213301 -15.875 12.5859375 C-25.64835857 18.11399344 -31.50299148 24.97084572 -36.5 34.9375 C-44.33604314 49.76095144 -52.98893219 56.84681607 -67.8125 64.5625 C-72.79139755 67.18234847 -76.35579917 69.73107903 -80 74 C-80.99 73.67 -81.98 73.34 -83 73 C-77.39494149 66.9624524 -71.22740529 63.35373062 -64 59.5625 C-50.89927953 52.5359769 -44.99254275 45.40201381 -38.07714844 32.3840332 C-31.35246819 19.83793551 -23.34683221 13.50786754 -11 7 C-9.05370162 5.86917601 -7.11500055 4.72507555 -5.1875 3.5625 C-4.00220703 2.85287109 -4.00220703 2.85287109 -2.79296875 2.12890625 C-1.05023989 1.12411359 -1.05023989 1.12411359 0 0 Z " fill="#179CCE" transform="translate(207,134)"/>
<path d="M0 0 C0 0.99 0 1.98 0 3 C-1.0621875 3.556875 -2.124375 4.11375 -3.21875 4.6875 C-18.42982526 12.82369837 -25.5055716 21.71185784 -33.484375 36.80859375 C-40.45141725 49.35318387 -52.09639538 56.45969936 -65 62 C-66.3259611 62.36154675 -67.65809771 62.70303684 -69 63 C-65.78684497 59.34281601 -62.17902901 57.41298702 -57.875 55.3125 C-43.83548934 48.06788849 -36.76771724 38.06107727 -29.5 24.25 C-24.54738753 15.2826452 -17.93629 9.74954891 -9 5 C-7.29095568 4.04293518 -5.58257955 3.08467579 -3.875 2.125 C-2.58430637 1.4148952 -1.29302352 0.70585342 0 0 Z " fill="#179ACE" transform="translate(207,145)"/>
<path d="M0 0 C-0.55349121 0.28609131 -1.10698242 0.57218262 -1.67724609 0.86694336 C-20.06471133 10.45100302 -30.70021683 19.12715623 -40.5 37.75 C-47.47322465 50.37593832 -58.44881081 55.96474733 -71 62 C-69.9683604 59.12000611 -69.24191564 58.13588616 -66.53125 56.61328125 C-65.5309375 56.18402344 -64.530625 55.75476562 -63.5 55.3125 C-51.09679761 49.39346576 -43.90574414 40.24687852 -38.1875 28.0625 C-33.09689276 17.68295018 -26.01882169 11.40929125 -16 6 C-14.95714844 5.35546875 -13.91429687 4.7109375 -12.83984375 4.046875 C-11.77894531 3.39203125 -10.71804687 2.7371875 -9.625 2.0625 C-8.64789063 1.45535156 -7.67078125 0.84820312 -6.6640625 0.22265625 C-3.67617701 -1.14861671 -2.99624518 -0.94196203 0 0 Z " fill="#199DD0" transform="translate(71,1)"/>
<path d="M0 0 C0 0.99 0 1.98 0 3 C-2.24419687 4.55898102 -4.61151539 5.74583907 -7.03125 7.01171875 C-14.79177562 12.20922867 -19.32258461 18.62948439 -23.4375 26.875 C-29.21813317 37.84687631 -35.79482249 48.34137439 -48 53 C-50.29296875 52.64453125 -50.29296875 52.64453125 -52 52 C-51.2265625 51.5875 -50.453125 51.175 -49.65625 50.75 C-48.6146875 50.1725 -47.573125 49.595 -46.5 49 C-45.4790625 48.443125 -44.458125 47.88625 -43.40625 47.3125 C-35.40446525 42.27138751 -30.711019 35.43547385 -26.5625 27.125 C-19.83380232 14.3829286 -13.00031912 6.64314107 0 0 Z " fill="#179CCE" transform="translate(207,155)"/>
<path d="M0 0 C-0.68964844 0.32871094 -1.37929688 0.65742188 -2.08984375 0.99609375 C-14.72166677 7.38997948 -20.44265433 15.38512342 -26.91625977 27.61254883 C-33.15680939 39.26338838 -40.18922045 45.96471163 -52 52 C-52 51.01 -52 50.02 -52 49 C-49.75580313 47.44101898 -47.38848461 46.25416093 -44.96875 44.98828125 C-37.20822438 39.79077133 -32.67741539 33.37051561 -28.5625 25.125 C-23.9080817 16.29072521 -12.56796436 -4.74534124 0 0 Z " fill="#169BD0" transform="translate(53,1)"/>
<path d="M0 0 C3.63 0 7.26 0 11 0 C9.73652837 2.60797351 8.46464776 5.21123407 7.1875 7.8125 C6.83107422 8.55048828 6.47464844 9.28847656 6.10742188 10.04882812 C5.75615234 10.76103516 5.40488281 11.47324219 5.04296875 12.20703125 C4.72352295 12.8616333 4.40407715 13.51623535 4.07495117 14.19067383 C3 16 3 16 0 19 C0 12.73 0 6.46 0 0 Z " fill="#F6FCFE" transform="translate(0,0)"/>
<path d="M0 0 C0.33 0 0.66 0 1 0 C1 5.94 1 11.88 1 18 C-2.63 18 -6.26 18 -10 18 C-8.71319131 15.3725162 -7.42082322 12.74803317 -6.125 10.125 C-5.76019531 9.37863281 -5.39539063 8.63226563 -5.01953125 7.86328125 C-4.66503906 7.14785156 -4.31054688 6.43242187 -3.9453125 5.6953125 C-3.62062988 5.03547363 -3.29594727 4.37563477 -2.96142578 3.69580078 C-2 2 -2 2 0 0 Z " fill="#F3FBFD" transform="translate(207,190)"/>
<path d="M0 0 C0 0.99 0 1.98 0 3 C-1.90625 4.8046875 -1.90625 4.8046875 -4.5 6.875 C-11.8414949 13.250782 -16.02589838 21.2477205 -20.5 29.75 C-23.23312955 34.8123946 -27.05191401 38.85597922 -31 43 C-31.99 42.67 -32.98 42.34 -34 42 C-33.53851563 41.63132813 -33.07703125 41.26265625 -32.6015625 40.8828125 C-27.37895111 36.23819763 -24.19407182 31.15341484 -20.9375 25.0625 C-15.32256495 14.59536149 -9.82137503 6.92618511 0 0 Z " fill="#199DD0" transform="translate(207,165)"/>
<path d="M0 0 C0.99 0.33 1.98 0.66 3 1 C2.52691406 1.391875 2.05382813 1.78375 1.56640625 2.1875 C-5.10031907 8.21744259 -8.79480889 15.36925317 -13.00097656 23.16748047 C-17.29417699 31.0425446 -23.09930915 40.03310305 -32 43 C-30.61013153 39.7405115 -29.08784584 38.04511325 -26.3125 35.875 C-19.62877518 30.18056297 -15.55264683 23.17405165 -11.5625 15.4375 C-8.45379263 9.47443405 -4.72969052 4.75426034 0 0 Z " fill="#1DA1D1" transform="translate(32,0)"/>
<path d="M0 0 C0.33 0.99 0.66 1.98 1 3 C0.52691406 3.45246094 0.05382812 3.90492188 -0.43359375 4.37109375 C-6.99636823 11.13855515 -10.94112995 18.87313044 -15.07373047 27.24169922 C-16 29 -16 29 -18 32 C-18.99 31.67 -19.98 31.34 -21 31 C-20.64808594 30.50113281 -20.29617187 30.00226563 -19.93359375 29.48828125 C-16.82076159 24.96126424 -14.1266503 20.39403312 -11.625 15.5 C-8.48644341 9.52480613 -4.74719903 4.7718598 0 0 Z " fill="#189DD1" transform="translate(207,176)"/>
<path d="M0 0 C0.99 0.33 1.98 0.66 3 1 C2.47212891 1.74830078 2.47212891 1.74830078 1.93359375 2.51171875 C-1.17923841 7.03873576 -3.8733497 11.60596688 -6.375 16.5 C-9.51355659 22.47519387 -13.25280097 27.2281402 -18 32 C-18.33 31.01 -18.66 30.02 -19 29 C-18.52691406 28.54753906 -18.05382812 28.09507813 -17.56640625 27.62890625 C-11.00363177 20.86144485 -7.05887005 13.12686956 -2.92626953 4.75830078 C-2 3 -2 3 0 0 Z " fill="#169CCF" transform="translate(19,0)"/>
<path d="M0 0 C0.66 0.33 1.32 0.66 2 1 C-2.95 9.91 -2.95 9.91 -8 19 C-9 15 -9 15 -7.890625 12.59765625 C-7.34921875 11.76105469 -6.8078125 10.92445312 -6.25 10.0625 C-5.71890625 9.22847656 -5.1878125 8.39445313 -4.640625 7.53515625 C-4.09921875 6.69855469 -3.5578125 5.86195312 -3 5 C-1.99423901 3.3368035 -0.99251618 1.67113417 0 0 Z " fill="#1D9FD1" transform="translate(9,0)"/>
<path d="M0 0 C0.33 0.66 0.66 1.32 1 2 C-0.14686239 4.58414472 -1.34911931 7.01808087 -2.6875 9.5 C-3.21633789 10.53447266 -3.21633789 10.53447266 -3.75585938 11.58984375 C-7.06194831 17.79102702 -7.06194831 17.79102702 -11 19 C-9.72984669 16.77044347 -8.45889952 14.54134574 -7.1875 12.3125 C-6.83107422 11.68666016 -6.47464844 11.06082031 -6.10742188 10.41601562 C-4.1116542 6.91884475 -2.08731295 3.44373714 0 0 Z " fill="#1197CD" transform="translate(74,65)"/>
<path d="M0 0 C0.33 0.66 0.66 1.32 1 2 C-0.1713576 4.5793531 -1.39607416 7.01934821 -2.75 9.5 C-3.1109375 10.18964844 -3.471875 10.87929687 -3.84375 11.58984375 C-5.63580122 14.92072155 -6.80502684 16.87001789 -10 19 C-8.40376856 14.60616294 -6.21975667 10.71004193 -3.875 6.6875 C-3.50246094 6.04232422 -3.12992188 5.39714844 -2.74609375 4.73242188 C-1.83367787 3.15324055 -0.91724491 1.57638136 0 0 Z " fill="#1196CD" transform="translate(178,169)"/>
<path d="M0 0 C0.66 0.66 1.32 1.32 2 2 C1.31164062 2.67095703 1.31164062 2.67095703 0.609375 3.35546875 C-2.83552299 6.74970648 -6.07255085 10.13576712 -9 14 C-9.33 13.34 -9.66 12.68 -10 12 C-3.84965831 3.55353075 -3.84965831 3.55353075 0 0 Z " fill="#22A2D4" transform="translate(84,52)"/>
<path d="M0 0 C1 3 1 3 0.28735352 4.7175293 C-0.09493408 5.33023682 -0.47722168 5.94294434 -0.87109375 6.57421875 C-1.28037109 7.24130859 -1.68964844 7.90839844 -2.11132812 8.59570312 C-2.54896484 9.28599609 -2.98660156 9.97628906 -3.4375 10.6875 C-4.0881543 11.7403418 -4.0881543 11.7403418 -4.75195312 12.81445312 C-5.82550587 14.54865372 -6.91158654 16.27508744 -8 18 C-8.66 17.67 -9.32 17.34 -10 17 C-8.5228313 14.35303306 -7.04337118 11.70739435 -5.5625 9.0625 C-5.14162109 8.30775391 -4.72074219 7.55300781 -4.28710938 6.77539062 C-3.68286133 5.69741211 -3.68286133 5.69741211 -3.06640625 4.59765625 C-2.69459229 3.93258057 -2.32277832 3.26750488 -1.93969727 2.58227539 C-1 1 -1 1 0 0 Z " fill="#1499CF" transform="translate(207,190)"/>
<path d="M0 0 C-2.24664262 1.31855095 -4.49697306 2.62993972 -6.75 3.9375 C-7.70132813 4.49727539 -7.70132813 4.49727539 -8.671875 5.06835938 C-11.76291632 6.85536764 -14.51467668 8.24885273 -18 9 C-13.641505 4.07911855 -6.94681446 -2.55189102 0 0 Z " fill="#169BCD" transform="translate(114,162)"/>
<path d="M0 0 C0.66 0.33 1.32 0.66 2 1 C0.87684284 3.1051689 -0.24844505 5.20915039 -1.375 7.3125 C-1.69210938 7.90740234 -2.00921875 8.50230469 -2.3359375 9.11523438 C-3.79386349 11.83365888 -5.28711703 14.43067554 -7 17 C-7.66 17 -8.32 17 -9 17 C-7.51481201 12.95698825 -5.57122002 9.38853744 -3.375 5.6875 C-2.74335937 4.61886719 -2.11171875 3.55023438 -1.4609375 2.44921875 C-0.97882813 1.64097656 -0.49671875 0.83273438 0 0 Z " fill="#149ACE" transform="translate(98,94)"/>
<path d="M0 0 C-0.66 1.32 -1.32 2.64 -2 4 C-2.66 4 -3.32 4 -4 4 C-4.2475 4.53625 -4.495 5.0725 -4.75 5.625 C-6.29696975 8.56424252 -8.13014369 11.25754408 -10 14 C-10.66 13.34 -11.32 12.68 -12 12 C-10.89847594 10.56047403 -9.7936696 9.12345929 -8.6875 7.6875 C-8.07261719 6.88699219 -7.45773438 6.08648437 -6.82421875 5.26171875 C-2.58031088 0 -2.58031088 0 0 0 Z " fill="#1C9FD1" transform="translate(164,26)"/>
<path d="M0 0 C-2.61970793 1.53064939 -5.24501643 3.04969748 -7.875 4.5625 C-8.99455078 5.21895508 -8.99455078 5.21895508 -10.13671875 5.88867188 C-10.85214844 6.29794922 -11.56757813 6.70722656 -12.3046875 7.12890625 C-13.2944458 7.70233765 -13.2944458 7.70233765 -14.30419922 8.28735352 C-14.86381348 8.52252686 -15.42342773 8.7577002 -16 9 C-16.66 8.67 -17.32 8.34 -18 8 C-13.49618278 3.9465645 -6.17442056 -2.05814019 0 0 Z " fill="#1399CF" transform="translate(142,187)"/>
<path d="M0 0 C0 3 0 3 -2.1875 5.26171875 C-3.115625 6.06222656 -4.04375 6.86273438 -5 7.6875 C-5.928125 8.49574219 -6.85625 9.30398437 -7.8125 10.13671875 C-8.8953125 11.05904297 -8.8953125 11.05904297 -10 12 C-10.66 11.34 -11.32 10.68 -12 10 C-10.37744772 8.51814875 -8.75188112 7.03959744 -7.125 5.5625 C-6.22007812 4.73878906 -5.31515625 3.91507813 -4.3828125 3.06640625 C-2 1 -2 1 0 0 Z " fill="#1DA1D3" transform="translate(207,165)"/>
<path d="M0 0 C0.66 0.66 1.32 1.32 2 2 C0.40112446 3.48488441 -1.20428905 4.96273145 -2.8125 6.4375 C-4.15248047 7.67306641 -4.15248047 7.67306641 -5.51953125 8.93359375 C-8 11 -8 11 -11 12 C-9.55928394 8.58301375 -7.76769435 6.68041215 -4.9375 4.3125 C-3.86822266 3.40951172 -3.86822266 3.40951172 -2.77734375 2.48828125 C-1.89755859 1.75158203 -1.89755859 1.75158203 -1 1 C-0.67 0.67 -0.34 0.34 0 0 Z " fill="#1CA0D2" transform="translate(11,135)"/>
<path d="M0 0 C0 0.66 0 1.32 0 2 C-4.87288478 5.5439162 -10.15549417 8.46197215 -16 10 C-13.4696646 7.21234235 -10.60660199 5.32536505 -7.4375 3.3125 C-6.46683594 2.68988281 -5.49617188 2.06726563 -4.49609375 1.42578125 C-2 0 -2 0 0 0 Z " fill="#1298CE" transform="translate(46,76)"/>
<path d="M0 0 C0.33 0.66 0.66 1.32 1 2 C-0.00703987 4.25103029 -1.06020716 6.34904118 -2.25 8.5 C-2.56324219 9.09425781 -2.87648438 9.68851563 -3.19921875 10.30078125 C-4.89581179 13.41941494 -5.99051251 14.99367501 -9 17 C-7.51481201 12.95698825 -5.57122002 9.38853744 -3.375 5.6875 C-2.74335938 4.61886719 -2.11171875 3.55023437 -1.4609375 2.44921875 C-0.97882812 1.64097656 -0.49671875 0.83273437 0 0 Z " fill="#1195CD" transform="translate(21,15)"/>
<path d="M0 0 C0.33 0.99 0.66 1.98 1 3 C-2 6 -5 9 -8 12 C-8.33 11.34 -8.66 10.68 -9 10 C-7.8758824 8.70756532 -6.75067408 7.41607925 -5.625 6.125 C-4.99851563 5.40570313 -4.37203125 4.68640625 -3.7265625 3.9453125 C-2.52573166 2.5923402 -1.2791655 1.2791655 0 0 Z " fill="#21A4D3" transform="translate(156,123)"/>
<path d="M0 0 C0.99 0.33 1.98 0.66 3 1 C1.8758824 2.29243468 0.75067408 3.58392075 -0.375 4.875 C-1.00148437 5.59429687 -1.62796875 6.31359375 -2.2734375 7.0546875 C-3.47426834 8.4076598 -4.7208345 9.7208345 -6 11 C-6.33 10.34 -6.66 9.68 -7 9 C-4.69 6.03 -2.38 3.06 0 0 Z " fill="#20A1D4" transform="translate(185,159)"/>
<path d="M0 0 C-1.95245185 1.19714555 -3.91214997 2.38248074 -5.875 3.5625 C-6.96554688 4.22378906 -8.05609375 4.88507813 -9.1796875 5.56640625 C-10.57574219 6.27603516 -10.57574219 6.27603516 -12 7 C-12.66 6.67 -13.32 6.34 -14 6 C-5.00826446 -1.66942149 -5.00826446 -1.66942149 0 0 Z " fill="#1399CB" transform="translate(190,137)"/>
<path d="M0 0 C-1.95245185 1.19714555 -3.91214997 2.38248074 -5.875 3.5625 C-6.96554688 4.22378906 -8.05609375 4.88507813 -9.1796875 5.56640625 C-10.57574219 6.27603516 -10.57574219 6.27603516 -12 7 C-12.66 6.67 -13.32 6.34 -14 6 C-5.00826446 -1.66942149 -5.00826446 -1.66942149 0 0 Z " fill="#1299CD" transform="translate(60,111)"/>
<path d="M0 0 C-1.5830577 4.2742558 -4.50568404 6.26531794 -8 9 C-8 6 -8 6 -6.7578125 4.39453125 C-5.94957031 3.61142578 -5.94957031 3.61142578 -5.125 2.8125 C-4.59132813 2.28269531 -4.05765625 1.75289062 -3.5078125 1.20703125 C-2 0 -2 0 0 0 Z " fill="#1FA2D2" transform="translate(106,175)"/>
<path d="M0 0 C0.66 0.66 1.32 1.32 2 2 C0.625 3.5 0.625 3.5 -1 5 C-1.66 5 -2.32 5 -3 5 C-3.66 6.32 -4.32 7.64 -5 9 C-5.99 8.67 -6.98 8.34 -8 8 C-5.36 5.36 -2.72 2.72 0 0 Z " fill="#23A4D4" transform="translate(72,142)"/>
<path d="M0 0 C0.66 0 1.32 0 2 0 C0.61735163 2.86867231 -0.92148553 5.56024032 -2.625 8.25 C-3.07101563 8.95640625 -3.51703125 9.6628125 -3.9765625 10.390625 C-4.48316406 11.18726563 -4.48316406 11.18726563 -5 12 C-5.33 11.01 -5.66 10.02 -6 9 C-4.85546875 6.73828125 -4.85546875 6.73828125 -3.1875 4.3125 C-2.64480469 3.50425781 -2.10210937 2.69601563 -1.54296875 1.86328125 C-1.03378906 1.24839844 -0.52460937 0.63351563 0 0 Z " fill="#1299CC" transform="translate(72,51)"/>
<path d="M0 0 C0.99 0.33 1.98 0.66 3 1 C0.69 3.64 -1.62 6.28 -4 9 C-4.66 8.34 -5.32 7.68 -6 7 C-4.02 4.69 -2.04 2.38 0 0 Z " fill="#22A4D5" transform="translate(140,113)"/>
<path d="M0 0 C-1.44253657 3.36591866 -3.33264727 5.51047079 -6 8 C-6.99 7.67 -7.98 7.34 -9 7 C-7.88121617 5.82737096 -6.75476949 4.66204862 -5.625 3.5 C-4.68527344 2.52546875 -4.68527344 2.52546875 -3.7265625 1.53125 C-2 0 -2 0 0 0 Z " fill="#1FA2D4" transform="translate(119,84)"/>
<path d="M0 0 C-5.94 3.465 -5.94 3.465 -12 7 C-12 6.01 -12 5.02 -12 4 C-10.56988027 3.13353333 -9.13059381 2.28218171 -7.6875 1.4375 C-6.48673828 0.72400391 -6.48673828 0.72400391 -5.26171875 -0.00390625 C-3 -1 -3 -1 0 0 Z " fill="#1198CC" transform="translate(112,59)"/>
<path d="M0 0 C0.66 0.66 1.32 1.32 2 2 C0.625 3.5 0.625 3.5 -1 5 C-1.66 5 -2.32 5 -3 5 C-3.66 6.32 -4.32 7.64 -5 9 C-5.66 8.34 -6.32 7.68 -7 7 C-4.69 4.69 -2.38 2.38 0 0 Z " fill="#1EA2D2" transform="translate(117,188)"/>
<path d="M0 0 C0.99 0.33 1.98 0.66 3 1 C0.69 3.31 -1.62 5.62 -4 8 C-4.66 7.34 -5.32 6.68 -6 6 C-4.02 4.02 -2.04 2.04 0 0 Z " fill="#20A3D4" transform="translate(30,155)"/>
<path d="M0 0 C0.99 0.33 1.98 0.66 3 1 C0.69 3.31 -1.62 5.62 -4 8 C-4.66 7.34 -5.32 6.68 -6 6 C-4.02 4.02 -2.04 2.04 0 0 Z " fill="#20A3D4" transform="translate(30,51)"/>
<path d="M0 0 C0.66 0.66 1.32 1.32 2 2 C0.02 3.98 -1.96 5.96 -4 8 C-4.99 7.67 -5.98 7.34 -7 7 C-4.69 4.69 -2.38 2.38 0 0 Z " fill="#20A2D5" transform="translate(65,32)"/>
<path d="M0 0 C0.66 0.66 1.32 1.32 2 2 C0.02 3.98 -1.96 5.96 -4 8 C-4.99 7.67 -5.98 7.34 -7 7 C-4.69 4.69 -2.38 2.38 0 0 Z " fill="#21A4D3" transform="translate(169,32)"/>
<path d="M0 0 C0.99 0.33 1.98 0.66 3 1 C0.69 3.31 -1.62 5.62 -4 8 C-4.66 7.34 -5.32 6.68 -6 6 C-4.02 4.02 -2.04 2.04 0 0 Z " fill="#1FA4D2" transform="translate(108,25)"/>
<path d="M0 0 C0.66 0.33 1.32 0.66 2 1 C0.57140593 2.03325986 -0.86822383 3.05127634 -2.3125 4.0625 C-3.51326172 4.91521484 -3.51326172 4.91521484 -4.73828125 5.78515625 C-5.48464844 6.18605469 -6.23101562 6.58695313 -7 7 C-7.99 6.67 -8.98 6.34 -10 6 C-8.70903219 5.18639005 -7.41720125 4.37414954 -6.125 3.5625 C-5.04605469 2.88380859 -5.04605469 2.88380859 -3.9453125 2.19140625 C-2 1 -2 1 0 0 Z " fill="#149ACD" transform="translate(161,6)"/>
<path d="M0 0 C0.66 0.66 1.32 1.32 2 2 C0.625 3.5 0.625 3.5 -1 5 C-1.66 5 -2.32 5 -3 5 C-3.33 5.99 -3.66 6.98 -4 8 C-4.99 7.67 -5.98 7.34 -7 7 C-4.69 4.69 -2.38 2.38 0 0 Z " fill="#24A5D4" transform="translate(110,182)"/>
<path d="M0 0 C0.66 0.66 1.32 1.32 2 2 C1.38125 2.2475 0.7625 2.495 0.125 2.75 C-2.37818306 4.22246063 -2.83045281 5.41028837 -4 8 C-4.99 8.495 -4.99 8.495 -6 9 C-5.52797514 4.75177626 -3.03344482 2.80010291 0 0 Z " fill="#1EA1D2" transform="translate(6,182)"/>
<path d="M0 0 C0.66 0.66 1.32 1.32 2 2 C0.35 4.97 -1.3 7.94 -3 11 C-3.66 10.34 -4.32 9.68 -5 9 C-3.35 6.03 -1.7 3.06 0 0 Z " fill="#1EA0D3" transform="translate(155,155)"/>
<path d="M0 0 C-1.49097658 3.7952131 -3.75700849 5.61042731 -7 8 C-7 5 -7 5 -4.625 2.3125 C-2 0 -2 0 0 0 Z " fill="#22A3D4" transform="translate(34,104)"/>
<path d="M0 0 C-1.49097658 3.7952131 -3.75700849 5.61042731 -7 8 C-7 5 -7 5 -4.625 2.3125 C-2 0 -2 0 0 0 Z " fill="#21A4D2" transform="translate(47,13)"/>
<path d="M0 0 C0.33 0.99 0.66 1.98 1 3 C-0.65 4.65 -2.3 6.3 -4 8 C-4.99 7.67 -5.98 7.34 -7 7 C-4.69 4.69 -2.38 2.38 0 0 Z " fill="#1FA1D5" transform="translate(39,6)"/>
<path d="M0 0 C0.66 0.66 1.32 1.32 2 2 C-1.465 4.97 -1.465 4.97 -5 8 C-5 5 -5 5 -2.5 2.3125 C-1.675 1.549375 -0.85 0.78625 0 0 Z " fill="#22A4D3" transform="translate(167,187)"/>
<path d="M0 0 C0.66 0.66 1.32 1.32 2 2 C-1.465 4.97 -1.465 4.97 -5 8 C-5 5 -5 5 -2.5 2.3125 C-1.675 1.549375 -0.85 0.78625 0 0 Z " fill="#23A7D5" transform="translate(141,161)"/>
<path d="M0 0 C0.66 0.33 1.32 0.66 2 1 C-0.97 5.95 -0.97 5.95 -4 11 C-5 8 -5 8 -4.00390625 5.95703125 C-3.52824219 5.24933594 -3.05257812 4.54164063 -2.5625 3.8125 C-2.08941406 3.09707031 -1.61632813 2.38164062 -1.12890625 1.64453125 C-0.75636719 1.10183594 -0.38382813 0.55914062 0 0 Z " fill="#1299CD" transform="translate(64,151)"/>
<path d="M0 0 C0.66 0.66 1.32 1.32 2 2 C-1.465 4.97 -1.465 4.97 -5 8 C-5 5 -5 5 -2.5 2.3125 C-1.675 1.549375 -0.85 0.78625 0 0 Z " fill="#22A5D4" transform="translate(175,143)"/>
<path d="M0 0 C0.66 0.66 1.32 1.32 2 2 C-1.465 4.97 -1.465 4.97 -5 8 C-5 5 -5 5 -2.5 2.3125 C-1.675 1.549375 -0.85 0.78625 0 0 Z " fill="#21A5D4" transform="translate(115,135)"/>
<path d="M0 0 C0.99 0.33 1.98 0.66 3 1 C2.0479279 2.00596297 1.08812654 3.00461563 0.125 4 C-0.40867188 4.556875 -0.94234375 5.11375 -1.4921875 5.6875 C-3 7 -3 7 -5 7 C-3.70700306 4.11562221 -2.34058637 2.12780579 0 0 Z " fill="#22A5D4" transform="translate(140,58)"/>
<path d="M0 0 C-3.96 1.98 -7.92 3.96 -12 6 C-9.47044504 0.94089009 -5.73679191 -1.91226397 0 0 Z " fill="#149ACD" transform="translate(12,57)"/>
<path d="M0 0 C0.66 0.66 1.32 1.32 2 2 C0.35 3.65 -1.3 5.3 -3 7 C-3.99 6.67 -4.98 6.34 -6 6 C-4.02 4.02 -2.04 2.04 0 0 Z " fill="#20A2D4" transform="translate(75,201)"/>
<path d="M0 0 C0.66 0.66 1.32 1.32 2 2 C0.35 3.65 -1.3 5.3 -3 7 C-3.99 6.67 -4.98 6.34 -6 6 C-4.02 4.02 -2.04 2.04 0 0 Z " fill="#1DA2D3" transform="translate(130,201)"/>
<path d="M0 0 C0.66 0.66 1.32 1.32 2 2 C0.35 3.65 -1.3 5.3 -3 7 C-3.99 6.67 -4.98 6.34 -6 6 C-4.02 4.02 -2.04 2.04 0 0 Z " fill="#20A2D4" transform="translate(26,201)"/>
<path d="M0 0 C0.99 0.33 1.98 0.66 3 1 C-0.465 3.97 -0.465 3.97 -4 7 C-4 4 -4 4 -2 1.8125 C-1.34 1.214375 -0.68 0.61625 0 0 Z " fill="#23A5D3" transform="translate(62,188)"/>
<path d="M0 0 C0.99 0.33 1.98 0.66 3 1 C-0.465 3.97 -0.465 3.97 -4 7 C-4 4 -4 4 -2 1.8125 C-1.34 1.214375 -0.68 0.61625 0 0 Z " fill="#20A3D5" transform="translate(160,181)"/>
<path d="M0 0 C0.99 0.33 1.98 0.66 3 1 C-0.465 3.97 -0.465 3.97 -4 7 C-4 4 -4 4 -2 1.8125 C-1.34 1.214375 -0.68 0.61625 0 0 Z " fill="#21A4D4" transform="translate(121,142)"/>
<path d="M0 0 C0.66 0.66 1.32 1.32 2 2 C-1.465 4.97 -1.465 4.97 -5 8 C-3.95206337 3.80825346 -3.08236365 2.78407039 0 0 Z " fill="#1CA3D0" transform="translate(5,128)"/>
<path d="M0 0 C0.33 0.99 0.66 1.98 1 3 C-1.97 5.475 -1.97 5.475 -5 8 C-5 5 -5 5 -2.5 2.3125 C-1.675 1.549375 -0.85 0.78625 0 0 Z " fill="#20A3D2" transform="translate(207,72)"/>
<path d="M0 0 C0.66 0.66 1.32 1.32 2 2 C0.68 4.31 -0.64 6.62 -2 9 C-2.99 8.67 -3.98 8.34 -5 8 C-3.35 5.36 -1.7 2.72 0 0 Z " fill="#23A1D3" transform="translate(167,66)"/>
<path d="M0 0 C0.66 0.66 1.32 1.32 2 2 C-1.465 4.97 -1.465 4.97 -5 8 C-3.95206337 3.80825346 -3.08236365 2.78407039 0 0 Z " fill="#1FA3D3" transform="translate(5,24)"/>
<path d="M0 0 C0.99 0.33 1.98 0.66 3 1 C1.71475739 1.86380259 0.42157581 2.71580369 -0.875 3.5625 C-1.59429687 4.03816406 -2.31359375 4.51382813 -3.0546875 5.00390625 C-3.69664063 5.33261719 -4.33859375 5.66132812 -5 6 C-5.66 5.67 -6.32 5.34 -7 5 C-2.25 1.125 -2.25 1.125 0 0 Z " fill="#1298CE" transform="translate(131,86)"/>
<path d="M0 0 C-1.39332574 3.36720387 -2.9789286 4.9859524 -6 7 C-6 4 -6 4 -4.125 1.8125 C-2 0 -2 0 0 0 Z " fill="#21A2D4" transform="translate(197,58)"/>
<path d="M0 0 C0.66 0.66 1.32 1.32 2 2 C0.35 3.98 -1.3 5.96 -3 8 C-3.66 7.34 -4.32 6.68 -5 6 C-3.35 4.02 -1.7 2.04 0 0 Z " fill="#23A4D5" transform="translate(184,56)"/>
<path d="M0 0 C0.66 0.33 1.32 0.66 2 1 C0.35 3.64 -1.3 6.28 -3 9 C-3.33 8.01 -3.66 7.02 -4 6 C-2.0625 2.8125 -2.0625 2.8125 0 0 Z " fill="#1397CE" transform="translate(103,190)"/>
<path d="M0 0 C0.66 0.66 1.32 1.32 2 2 C-0.97 4.475 -0.97 4.475 -4 7 C-4 4 -4 4 -2 1.8125 C-1.34 1.214375 -0.68 0.61625 0 0 Z " fill="#21A3D5" transform="translate(194,163)"/>
<path d="M0 0 C0.66 0.66 1.32 1.32 2 2 C-0.97 4.475 -0.97 4.475 -4 7 C-4 4 -4 4 -2 1.8125 C-1.34 1.214375 -0.68 0.61625 0 0 Z " fill="#21A4D4" transform="translate(78,149)"/>
<path d="M0 0 C0.66 0.33 1.32 0.66 2 1 C-2.39453125 5.00390625 -2.39453125 5.00390625 -4 6 C-4.99 5.67 -5.98 5.34 -7 5 C-4.69 3.35 -2.38 1.7 0 0 Z " fill="#1198CD" transform="translate(44,107)"/>
<path d="M0 0 C0.66 0.66 1.32 1.32 2 2 C-0.97 4.475 -0.97 4.475 -4 7 C-4 4 -4 4 -2 1.8125 C-1.34 1.214375 -0.68 0.61625 0 0 Z " fill="#21A5D2" transform="translate(166,84)"/>
<path d="M0 0 C0.66 0.66 1.32 1.32 2 2 C-0.97 4.475 -0.97 4.475 -4 7 C-4 4 -4 4 -2 1.8125 C-1.34 1.214375 -0.68 0.61625 0 0 Z " fill="#22A4D4" transform="translate(50,70)"/>
<path d="M0 0 C0.66 0.66 1.32 1.32 2 2 C-0.97 4.475 -0.97 4.475 -4 7 C-4 4 -4 4 -2 1.8125 C-1.34 1.214375 -0.68 0.61625 0 0 Z " fill="#20A3D4" transform="translate(182,45)"/>
<path d="M0 0 C0.66 0.66 1.32 1.32 2 2 C-0.97 4.475 -0.97 4.475 -4 7 C-4 4 -4 4 -2 1.8125 C-1.34 1.214375 -0.68 0.61625 0 0 Z " fill="#22A5D3" transform="translate(102,18)"/>
<path d="M0 0 C0.33 0.66 0.66 1.32 1 2 C0.22265625 3.7265625 0.22265625 3.7265625 -0.9375 5.625 C-1.618125 6.73875 -2.29875 7.8525 -3 9 C-3.66 8.34 -4.32 7.68 -5 7 C-1.125 1.125 -1.125 1.125 0 0 Z " fill="#179CCF" transform="translate(130,7)"/>
</svg>
